<?xml version="1.0" encoding="UTF-8"?>
<svg xmlns="http://www.w3.org/2000/svg" xmlns:xlink="http://www.w3.org/1999/xlink" width="366px" height="204px" viewBox="0 0 366 204" version="1.1">
<g id="surface1">
<path style=" stroke:none;fill-rule:nonzero;fill:rgb(6.666667%,18.431373%,44.705883%);fill-opacity:1;" d="M 165.097656 80.714844 C 169.042969 83.546875 169.53125 86.449219 170.875 91.058594 C 172.0625 96.246094 172.0625 96.246094 174.746094 100.621094 C 175.175781 99.359375 175.609375 98.097656 176.054688 96.796875 C 176.644531 95.160156 177.234375 93.523438 177.839844 91.835938 C 178.703125 89.386719 178.703125 89.386719 179.582031 86.890625 C 181.625 82.703125 181.625 82.703125 184.441406 80.667969 C 187.128906 79.945312 187.128906 79.945312 189.878906 81.324219 C 191.085938 85.839844 191.480469 90.265625 191.691406 94.917969 C 191.75 96.140625 191.804688 97.363281 191.867188 98.621094 C 191.917969 99.878906 191.972656 101.136719 192.03125 102.429688 C 192.089844 103.714844 192.148438 105 192.210938 106.320312 C 192.355469 109.476562 192.496094 112.628906 192.632812 115.785156 C 187.472656 117.335938 187.472656 117.335938 184.375 115.785156 C 183.804688 111.730469 183.804688 111.730469 183.515625 106.738281 C 183.414062 105.085938 183.308594 103.4375 183.203125 101.734375 C 183.136719 100.457031 183.070312 99.179688 183 97.863281 C 181.183594 102.867188 179.367188 107.871094 177.496094 113.027344 C 175.679688 113.027344 173.863281 113.027344 171.992188 113.027344 C 170.175781 108.476562 168.359375 103.929688 166.488281 99.242188 C 165.582031 104.703125 164.671875 110.160156 163.738281 115.785156 C 162.375 116.238281 161.011719 116.695312 159.609375 117.164062 C 158.699219 116.707031 157.792969 116.253906 156.855469 115.785156 C 157.050781 111.847656 157.253906 107.914062 157.460938 103.980469 C 157.511719 102.878906 157.566406 101.777344 157.625 100.640625 C 157.96875 94.136719 158.34375 87.722656 159.609375 81.324219 C 162.359375 79.945312 162.359375 79.945312 165.097656 80.714844 Z M 165.097656 80.714844 "/>
<path style=" stroke:none;fill-rule:nonzero;fill:rgb(32.156864%,81.568629%,69.803923%);fill-opacity:1;" d="M 330.984375 65.34375 C 344.066406 73.777344 352.503906 84.480469 356.90625 99.449219 C 358.011719 104.636719 358.148438 109.125 357.746094 114.40625 C 355.929688 114.859375 354.113281 115.316406 352.242188 115.785156 C 350.414062 110.578125 348.941406 105.363281 347.597656 100.019531 C 344.5625 88.902344 339.46875 80.164062 330.226562 73.054688 C 316.367188 65.519531 303.191406 62.234375 287.453125 65.726562 C 279.015625 68.578125 272.289062 72.769531 265.554688 78.566406 C 264.648438 78.113281 263.738281 77.65625 262.804688 77.1875 C 280.042969 57.976562 307.925781 52.609375 330.984375 65.34375 Z M 330.984375 65.34375 "/>
<path style=" stroke:none;fill-rule:nonzero;fill:rgb(6.666667%,17.647059%,41.960785%);fill-opacity:1;" d="M 81.265625 87.785156 C 82.472656 87.761719 83.683594 87.738281 84.925781 87.714844 C 85.960938 87.878906 86.996094 88.046875 88.058594 88.214844 C 88.96875 89.582031 89.875 90.945312 90.8125 92.351562 C 89.449219 92.804688 88.085938 93.261719 86.683594 93.730469 C 86.769531 95.238281 86.855469 96.742188 86.941406 98.296875 C 86.683594 103.378906 86.683594 103.378906 85.222656 106.050781 C 81.164062 108.277344 77.453125 107.769531 72.925781 107.511719 C 72.925781 108.421875 72.925781 109.332031 72.925781 110.269531 C 74.171875 110.199219 74.171875 110.199219 75.441406 110.125 C 84.34375 109.824219 84.34375 109.824219 88.835938 111.90625 C 90.8125 114.40625 90.8125 114.40625 91.671875 117.765625 C 90.8125 121.296875 90.8125 121.296875 87.371094 124.484375 C 81.273438 127.429688 78.25 127.570312 71.550781 126.8125 C 68.441406 125.179688 68.441406 125.179688 66.046875 122.675781 C 65.808594 119.101562 65.808594 119.101562 66.390625 115.09375 C 66.566406 113.773438 66.742188 112.449219 66.925781 111.089844 C 67.089844 109.910156 67.253906 108.730469 67.421875 107.511719 C 67.65625 103.566406 67.65625 103.566406 66.476562 100.792969 C 65.835938 96.425781 67.625 94.4375 70.171875 90.972656 C 74.617188 88.003906 76.105469 87.808594 81.265625 87.785156 Z M 75.675781 93.730469 C 73.894531 95.199219 73.894531 95.199219 74.214844 98.640625 C 74.242188 99.75 74.273438 100.859375 74.300781 102 C 76.117188 102 77.933594 102 79.804688 102 C 80.257812 99.726562 80.710938 97.453125 81.179688 95.109375 C 78.503906 94.292969 78.503906 94.292969 75.675781 93.730469 Z M 72.925781 115.785156 C 72.925781 117.601562 72.925781 119.421875 72.925781 121.296875 C 76.511719 122.582031 77.9375 122.882812 81.523438 121.382812 C 82.320312 120.898438 83.113281 120.417969 83.933594 119.917969 C 83.476562 118.554688 83.023438 117.191406 82.554688 115.785156 C 79.378906 115.785156 76.199219 115.785156 72.925781 115.785156 Z M 72.925781 115.785156 "/>
<path style=" stroke:none;fill-rule:nonzero;fill:rgb(38.039216%,85.882354%,68.235296%);fill-opacity:1;" d="M 315.089844 71.675781 C 320.191406 73.328125 324.410156 75.582031 328.851562 78.566406 C 330.125 79.421875 331.402344 80.273438 332.71875 81.152344 C 341.789062 89.976562 346.425781 99.925781 346.871094 112.753906 C 346.261719 123.289062 343.589844 134.183594 336.417969 142.230469 C 332.976562 144.730469 332.976562 144.730469 329.796875 144.472656 C 329.03125 144.101562 328.261719 143.730469 327.472656 143.351562 C 328.171875 140.363281 328.847656 137.839844 330.226562 135.082031 C 331.132812 135.082031 332.042969 135.082031 332.976562 135.082031 C 333.640625 133.128906 334.296875 131.175781 334.957031 129.222656 C 335.324219 128.136719 335.691406 127.046875 336.066406 125.929688 C 340.183594 113.03125 338.640625 103.179688 332.976562 90.972656 C 327.910156 82.914062 321.164062 78.910156 312.339844 75.8125 C 305.007812 74.472656 297.753906 74.390625 290.324219 74.433594 C 297.597656 69.574219 306.648438 70.832031 315.089844 71.675781 Z M 315.089844 71.675781 "/>
<path style=" stroke:none;fill-rule:nonzero;fill:rgb(7.450981%,18.431373%,43.137255%);fill-opacity:1;" d="M 22.789062 81.238281 C 24.449219 81.28125 24.449219 81.28125 26.144531 81.324219 C 29.546875 87.691406 31.875 94.007812 33.96875 100.878906 C 34.277344 101.859375 34.585938 102.839844 34.90625 103.847656 C 36.179688 107.96875 37.148438 111.445312 37.148438 115.785156 C 34.878906 115.785156 32.609375 115.785156 30.269531 115.785156 C 29.363281 113.054688 28.453125 110.324219 27.519531 107.511719 C 24.339844 107.511719 21.160156 107.511719 17.886719 107.511719 C 16.980469 110.242188 16.070312 112.972656 15.136719 115.785156 C 12.863281 115.785156 10.59375 115.785156 8.253906 115.785156 C 9.800781 107.757812 11.960938 100.097656 14.535156 92.351562 C 14.839844 91.425781 15.144531 90.5 15.457031 89.546875 C 18.226562 81.351562 18.226562 81.351562 22.789062 81.238281 Z M 22.015625 88.214844 C 21.105469 92.308594 20.199219 96.402344 19.261719 100.621094 C 21.535156 100.621094 23.804688 100.621094 26.144531 100.621094 C 25.234375 96.527344 24.328125 92.433594 23.390625 88.214844 C 22.9375 88.214844 22.484375 88.214844 22.015625 88.214844 Z M 22.015625 88.214844 "/>
<path style=" stroke:none;fill-rule:nonzero;fill:rgb(6.27451%,16.470589%,40.000001%);fill-opacity:1;" d="M 94.941406 79.945312 C 97.210938 79.945312 99.480469 79.945312 101.820312 79.945312 C 102.273438 83.128906 102.726562 86.3125 103.195312 89.59375 C 104.726562 89.167969 104.726562 89.167969 106.292969 88.734375 C 110.554688 88.152344 112.070312 88.589844 115.578125 90.972656 C 117.773438 95.367188 117.09375 100.109375 117.039062 104.929688 C 117.035156 105.96875 117.027344 107.007812 117.023438 108.078125 C 117.003906 110.648438 116.980469 113.214844 116.953125 115.785156 C 114.683594 115.785156 112.414062 115.785156 110.074219 115.785156 C 109.621094 109.414062 109.167969 103.046875 108.699219 96.488281 C 106.882812 96.488281 105.066406 96.488281 103.195312 96.488281 C 102.742188 102.855469 102.289062 109.222656 101.820312 115.785156 C 99.550781 115.785156 97.277344 115.785156 94.941406 115.785156 C 94.941406 103.957031 94.941406 92.128906 94.941406 79.945312 Z M 94.941406 79.945312 "/>
<path style=" stroke:none;fill-rule:nonzero;fill:rgb(7.843138%,20.392157%,46.666667%);fill-opacity:1;" d="M 211.894531 88.214844 C 215.683594 90.691406 218.121094 92.421875 220.148438 96.488281 C 220.789062 102.875 221.148438 107.054688 217.140625 112.25 C 211.621094 117.289062 211.621094 117.289062 206.390625 117.164062 C 201.546875 115.414062 198.804688 113.855469 195.554688 109.839844 C 193.679688 105.351562 193.320312 102.695312 194.007812 97.863281 C 198.96875 89.082031 201.8125 87.359375 211.894531 88.214844 Z M 205.015625 93.730469 C 202.046875 96.152344 202.046875 96.152344 201.898438 99.070312 C 201.90625 100.039062 201.910156 101.003906 201.917969 102 C 201.910156 102.964844 201.90625 103.933594 201.898438 104.929688 C 202.046875 107.847656 202.046875 107.847656 205.015625 110.269531 C 208.558594 110.042969 208.558594 110.042969 211.894531 108.890625 C 213.820312 105.035156 213.617188 102.132812 213.269531 97.863281 C 211.632812 95.191406 211.632812 95.191406 209.144531 93.730469 C 207.78125 93.730469 206.417969 93.730469 205.015625 93.730469 Z M 205.015625 93.730469 "/>
<path style=" stroke:none;fill-rule:nonzero;fill:rgb(7.843138%,19.215687%,43.137255%);fill-opacity:1;" d="M 272.4375 88.214844 C 276.390625 90.199219 276.390625 90.199219 279.316406 93.730469 C 281.121094 99.71875 281.449219 104.433594 278.886719 110.183594 C 274.523438 115.527344 274.523438 115.527344 270.714844 116.902344 C 265.539062 117.257812 262.992188 115.847656 258.675781 113.027344 C 254.816406 108.660156 254.550781 106.519531 254.550781 100.621094 C 255.3125 96.316406 256.203125 94.714844 258.847656 90.972656 C 263.882812 87.464844 266.414062 87.246094 272.4375 88.214844 Z M 265.554688 93.730469 C 262.210938 97.078125 261.753906 98.691406 261.429688 103.378906 C 263.265625 107.214844 263.265625 107.214844 265.554688 110.269531 C 267.828125 109.816406 270.097656 109.359375 272.4375 108.890625 C 274 102.210938 274 102.210938 272.09375 95.882812 C 269.710938 93.269531 269.710938 93.269531 265.554688 93.730469 Z M 265.554688 93.730469 "/>
<path style=" stroke:none;fill-rule:nonzero;fill:rgb(33.333334%,75.294119%,69.01961%);fill-opacity:1;" d="M 317.84375 88.214844 C 323.992188 90.097656 326.769531 92.4375 330.226562 97.863281 C 334.441406 106.65625 335.261719 114.558594 332.976562 124.054688 C 330.117188 131.890625 324.636719 137.320312 317.84375 141.972656 C 311.757812 144.765625 306.605469 144.996094 299.953125 144.730469 C 299.5 142.910156 299.046875 141.089844 298.578125 139.214844 C 300.535156 138.746094 300.535156 138.746094 302.535156 138.269531 C 311.203125 135.703125 320.84375 132.8125 325.582031 124.570312 C 328.300781 117.667969 328.730469 110.664062 327.472656 103.378906 C 325.648438 99.277344 323.339844 95.882812 320.59375 92.351562 C 319.6875 90.988281 318.777344 89.621094 317.84375 88.214844 Z M 317.84375 88.214844 "/>
<path style=" stroke:none;fill-rule:nonzero;fill:rgb(7.450981%,21.176471%,45.490196%);fill-opacity:1;" d="M 286.195312 88.214844 C 289.601562 88.898438 289.601562 88.898438 293.074219 89.59375 C 293.984375 89.140625 294.890625 88.683594 295.828125 88.214844 C 303.246094 87.582031 303.246094 87.582031 306.386719 89.960938 C 308.605469 92.867188 308.695312 94.261719 308.613281 97.882812 C 308.601562 98.925781 308.585938 99.96875 308.574219 101.042969 C 308.539062 102.128906 308.503906 103.210938 308.46875 104.324219 C 308.441406 105.972656 308.441406 105.972656 308.410156 107.65625 C 308.363281 110.367188 308.289062 113.074219 308.210938 115.785156 C 305.941406 115.328125 303.671875 114.875 301.332031 114.40625 C 300.875 108.039062 300.421875 101.667969 299.953125 95.109375 C 298.136719 95.5625 296.324219 96.019531 294.449219 96.488281 C 293.996094 102.855469 293.542969 109.222656 293.074219 115.785156 C 290.804688 115.785156 288.535156 115.785156 286.195312 115.785156 C 286.195312 106.6875 286.195312 97.589844 286.195312 88.214844 Z M 286.195312 88.214844 "/>
<path style=" stroke:none;fill-rule:nonzero;fill:rgb(7.450981%,22.352941%,51.372552%);fill-opacity:1;" d="M 130.714844 82.703125 C 130.714844 84.976562 130.714844 87.25 130.714844 89.59375 C 132.984375 89.59375 135.253906 89.59375 137.59375 89.59375 C 137.59375 91.414062 137.59375 93.234375 137.59375 95.109375 C 135.324219 95.109375 133.054688 95.109375 130.714844 95.109375 C 131.167969 99.65625 131.621094 104.207031 132.089844 108.890625 C 133.90625 109.347656 135.722656 109.800781 137.59375 110.269531 C 137.59375 112.089844 137.59375 113.910156 137.59375 115.785156 C 128.730469 116.285156 128.730469 116.285156 125.597656 114.234375 C 123.046875 110.496094 123.433594 107.589844 123.578125 103.121094 C 123.613281 101.621094 123.652344 100.125 123.691406 98.582031 C 123.738281 97.433594 123.785156 96.289062 123.835938 95.109375 C 122.472656 95.109375 121.109375 95.109375 119.707031 95.109375 C 121.375 91.003906 125.785156 82.703125 130.714844 82.703125 Z M 130.714844 82.703125 "/>
<path style=" stroke:none;fill-rule:nonzero;fill:rgb(8.235294%,24.313726%,50.980395%);fill-opacity:1;" d="M 232.535156 82.703125 C 232.535156 84.976562 232.535156 87.25 232.535156 89.59375 C 234.351562 89.59375 236.167969 89.59375 238.039062 89.59375 C 238.039062 91.414062 238.039062 93.234375 238.039062 95.109375 C 236.222656 95.109375 234.40625 95.109375 232.535156 95.109375 C 232.988281 99.65625 233.441406 104.207031 233.910156 108.890625 C 235.726562 109.347656 237.542969 109.800781 239.414062 110.269531 C 239.414062 112.089844 239.414062 113.910156 239.414062 115.785156 C 230.546875 116.285156 230.546875 116.285156 227.417969 114.234375 C 224.867188 110.496094 225.253906 107.589844 225.394531 103.121094 C 225.433594 101.621094 225.46875 100.125 225.507812 98.582031 C 225.558594 97.433594 225.605469 96.289062 225.652344 95.109375 C 223.839844 94.652344 222.023438 94.199219 220.148438 93.730469 C 221.953125 91.886719 223.757812 90.050781 225.566406 88.214844 C 227.078125 86.679688 227.078125 86.679688 228.617188 85.113281 C 231.15625 82.703125 231.15625 82.703125 232.535156 82.703125 Z M 232.535156 82.703125 "/>
<path style=" stroke:none;fill-rule:nonzero;fill:rgb(33.333334%,81.176472%,69.803923%);fill-opacity:1;" d="M 319.21875 107.511719 C 320.125 107.96875 321.035156 108.421875 321.96875 108.890625 C 322.753906 116.425781 321.542969 120.917969 317.214844 127.171875 C 313.6875 131.148438 310.570312 132.421875 305.457031 133.703125 C 298.046875 133.867188 292.253906 132.691406 286.195312 128.1875 C 286.648438 125.914062 287.105469 123.640625 287.570312 121.296875 C 290.554688 121.9375 292.921875 122.585938 295.570312 124.140625 C 301.152344 126.539062 306.296875 126.042969 311.996094 124.226562 C 316.828125 119.652344 317.753906 113.867188 319.21875 107.511719 Z M 319.21875 107.511719 "/>
<path style=" stroke:none;fill-rule:nonzero;fill:rgb(36.470589%,90.196079%,69.803923%);fill-opacity:1;" d="M 342.609375 77.1875 C 343.515625 77.1875 344.425781 77.1875 345.359375 77.1875 C 354.691406 87.96875 358.523438 100.335938 357.746094 114.40625 C 355.929688 114.859375 354.113281 115.316406 352.242188 115.785156 C 349.675781 108.453125 347.839844 101.046875 346.050781 93.5 C 344.792969 88.332031 343.359375 83.445312 341.234375 78.566406 C 341.6875 78.113281 342.140625 77.65625 342.609375 77.1875 Z M 342.609375 77.1875 "/>
<path style=" stroke:none;fill-rule:nonzero;fill:rgb(7.450981%,18.82353%,44.313726%);fill-opacity:1;" d="M 41.277344 79.945312 C 43.09375 79.945312 44.910156 79.945312 46.78125 79.945312 C 47.234375 89.042969 47.691406 98.140625 48.15625 107.511719 C 49.066406 107.96875 49.972656 108.421875 50.910156 108.890625 C 50.910156 111.167969 50.910156 113.441406 50.910156 115.785156 C 46.59375 115.433594 44.613281 115.09375 41.757812 111.730469 C 39.144531 105.785156 39.40625 100.488281 39.558594 94.074219 C 39.566406 92.867188 39.574219 91.660156 39.578125 90.417969 C 39.691406 81.539062 39.691406 81.539062 41.277344 79.945312 Z M 41.277344 79.945312 "/>
<path style=" stroke:none;fill-rule:nonzero;fill:rgb(12.156863%,62.7451%,74.117649%);fill-opacity:1;" d="M 303.652344 58.925781 C 306.300781 58.914062 306.300781 58.914062 309 58.902344 C 313.300781 59.238281 315.640625 59.738281 319.21875 62.027344 C 313.992188 65.515625 310.085938 64.867188 304.082031 64.613281 C 288.546875 64.304688 277.414062 68.359375 265.554688 78.566406 C 264.648438 78.113281 263.738281 77.65625 262.804688 77.1875 C 274.128906 64.566406 286.4375 58.855469 303.652344 58.925781 Z M 303.652344 58.925781 "/>
<path style=" stroke:none;fill-rule:nonzero;fill:rgb(9.411765%,22.745098%,49.411765%);fill-opacity:1;" d="M 160.984375 82.703125 C 162.347656 83.15625 163.710938 83.613281 165.113281 84.082031 C 165.113281 84.992188 165.113281 85.902344 165.113281 86.835938 C 166.019531 87.292969 166.929688 87.746094 167.863281 88.214844 C 167.410156 89.582031 166.957031 90.945312 166.488281 92.351562 C 165.582031 92.351562 164.671875 92.351562 163.738281 92.351562 C 163.738281 100.085938 163.738281 107.816406 163.738281 115.785156 C 162.375 116.238281 161.011719 116.695312 159.609375 117.164062 C 158.699219 116.707031 157.792969 116.253906 156.855469 115.785156 C 157.015625 111.820312 157.1875 107.859375 157.375 103.894531 C 157.414062 102.78125 157.457031 101.667969 157.503906 100.519531 C 157.8125 94.117188 158.589844 88.730469 160.984375 82.703125 Z M 160.984375 82.703125 "/>
<path style=" stroke:none;fill-rule:nonzero;fill:rgb(21.176471%,58.039218%,66.666669%);fill-opacity:1;" d="M 315.089844 71.675781 C 324.875 74.84375 334.28125 80.773438 339.855469 89.59375 C 339.855469 90.503906 339.855469 91.414062 339.855469 92.351562 C 338.949219 92.351562 338.039062 92.351562 337.105469 92.351562 C 336.652344 93.714844 336.195312 95.082031 335.730469 96.488281 C 335.34375 95.769531 334.960938 95.054688 334.5625 94.316406 C 328.34375 83.476562 321.210938 78.410156 309.1875 75.109375 C 302.898438 73.96875 296.6875 74.105469 290.324219 74.433594 C 297.597656 69.574219 306.648438 70.832031 315.089844 71.675781 Z M 315.089844 71.675781 "/>
<path style=" stroke:none;fill-rule:nonzero;fill:rgb(7.450981%,18.82353%,43.529412%);fill-opacity:1;" d="M 243.542969 89.59375 C 245.8125 89.59375 248.082031 89.59375 250.421875 89.59375 C 250.421875 97.78125 250.421875 105.96875 250.421875 114.40625 C 248.152344 114.859375 245.878906 115.316406 243.542969 115.785156 C 243.542969 107.140625 243.542969 98.5 243.542969 89.59375 Z M 243.542969 89.59375 "/>
<path style=" stroke:none;fill-rule:nonzero;fill:rgb(10.588235%,19.607843%,39.607844%);fill-opacity:1;" d="M 55.039062 89.59375 C 57.308594 89.59375 59.578125 89.59375 61.917969 89.59375 C 61.917969 97.78125 61.917969 105.96875 61.917969 114.40625 C 59.648438 114.859375 57.375 115.316406 55.039062 115.785156 C 55.039062 107.140625 55.039062 98.5 55.039062 89.59375 Z M 55.039062 89.59375 "/>
<path style=" stroke:none;fill-rule:nonzero;fill:rgb(23.137255%,55.686277%,63.529414%);fill-opacity:1;" d="M 317.84375 88.214844 C 323.992188 90.097656 326.769531 92.4375 330.226562 97.863281 C 333.082031 104.496094 335.535156 111.269531 334.351562 118.539062 C 332.582031 120.4375 330.75 122.285156 328.851562 124.054688 C 328.832031 122.691406 328.8125 121.324219 328.789062 119.917969 C 328.464844 109.152344 327.667969 100.914062 320.59375 92.351562 C 319.6875 90.988281 318.777344 89.621094 317.84375 88.214844 Z M 317.84375 88.214844 "/>
<path style=" stroke:none;fill-rule:nonzero;fill:rgb(7.843138%,19.215687%,41.568628%);fill-opacity:1;" d="M 130.714844 89.59375 C 132.984375 89.59375 135.253906 89.59375 137.59375 89.59375 C 137.59375 91.414062 137.59375 93.234375 137.59375 95.109375 C 135.324219 95.109375 133.054688 95.109375 130.714844 95.109375 C 131.167969 99.65625 131.621094 104.207031 132.089844 108.890625 C 133.90625 109.347656 135.722656 109.800781 137.59375 110.269531 C 137.59375 112.089844 137.59375 113.910156 137.59375 115.785156 C 128.710938 116.289062 128.710938 116.289062 125.597656 114.191406 C 123.132812 110.640625 123.425781 108.085938 123.578125 103.808594 C 123.613281 102.4375 123.652344 101.070312 123.691406 99.65625 C 123.738281 98.609375 123.785156 97.566406 123.835938 96.488281 C 124.289062 96.488281 124.742188 96.488281 125.210938 96.488281 C 125.210938 101.035156 125.210938 105.582031 125.210938 110.269531 C 126.117188 110.269531 127.027344 110.269531 127.960938 110.269531 C 128.871094 111.179688 129.777344 112.089844 130.714844 113.027344 C 129.804688 111.664062 128.898438 110.296875 127.960938 108.890625 C 127.644531 106.222656 127.644531 106.222656 127.703125 103.378906 C 127.714844 102.441406 127.722656 101.503906 127.730469 100.535156 C 127.960938 97.863281 127.960938 97.863281 129.339844 93.730469 C 130.246094 93.273438 131.15625 92.820312 132.089844 92.351562 C 131.636719 91.441406 131.183594 90.53125 130.714844 89.59375 Z M 130.714844 89.59375 "/>
<path style=" stroke:none;fill-rule:nonzero;fill:rgb(9.411765%,19.607843%,42.352942%);fill-opacity:1;" d="M 27.519531 103.378906 C 28.882812 104.289062 30.242188 105.199219 31.648438 106.136719 C 31.648438 105.226562 31.648438 104.316406 31.648438 103.378906 C 32.554688 103.378906 33.460938 103.378906 34.398438 103.378906 C 35.304688 107.472656 36.214844 111.566406 37.148438 115.785156 C 34.878906 115.785156 32.609375 115.785156 30.269531 115.785156 C 29.363281 113.054688 28.453125 110.324219 27.519531 107.511719 C 24.339844 107.511719 21.160156 107.511719 17.886719 107.511719 C 16.980469 110.242188 16.070312 112.972656 15.136719 115.785156 C 12.863281 115.785156 10.59375 115.785156 8.253906 115.785156 C 8.710938 113.054688 9.164062 110.324219 9.632812 107.511719 C 10.539062 107.511719 11.449219 107.511719 12.382812 107.511719 C 11.929688 109.332031 11.476562 111.152344 11.007812 113.027344 C 13.859375 110.492188 13.859375 110.492188 15.050781 107.425781 C 17.722656 102.546875 22.496094 103 27.519531 103.378906 Z M 27.519531 103.378906 "/>
<path style=" stroke:none;fill-rule:nonzero;fill:rgb(7.843138%,22.352941%,50.588238%);fill-opacity:1;" d="M 97.691406 82.703125 C 98.601562 83.15625 99.507812 83.613281 100.445312 84.082031 C 102.621094 94.191406 101.375 104.183594 100.445312 114.40625 C 99.082031 113.949219 97.71875 113.496094 96.316406 113.027344 C 96.277344 108.230469 96.25 103.4375 96.230469 98.640625 C 96.21875 97.269531 96.207031 95.902344 96.195312 94.492188 C 96.191406 93.191406 96.1875 91.886719 96.179688 90.546875 C 96.175781 89.34375 96.167969 88.136719 96.160156 86.894531 C 96.316406 84.082031 96.316406 84.082031 97.691406 82.703125 Z M 97.691406 82.703125 "/>
<path style=" stroke:none;fill-rule:nonzero;fill:rgb(6.666667%,16.078432%,39.607844%);fill-opacity:1;" d="M 185.75 79.945312 C 187.113281 80.402344 188.476562 80.855469 189.878906 81.324219 C 190.875 85.890625 191.480469 90.253906 191.691406 94.917969 C 191.75 96.140625 191.804688 97.363281 191.867188 98.621094 C 191.917969 99.878906 191.972656 101.136719 192.03125 102.429688 C 192.089844 103.714844 192.148438 105 192.210938 106.320312 C 192.355469 109.476562 192.496094 112.628906 192.632812 115.785156 C 187.472656 117.335938 187.472656 117.335938 184.375 115.785156 C 184.375 112.601562 184.375 109.414062 184.375 106.136719 C 184.828125 106.136719 185.285156 106.136719 185.75 106.136719 C 186.207031 108.410156 186.660156 110.683594 187.128906 113.027344 C 188.035156 113.027344 188.945312 113.027344 189.878906 113.027344 C 189.660156 112.242188 189.445312 111.453125 189.21875 110.644531 C 188.511719 107.550781 188.226562 104.710938 188.070312 101.546875 C 187.980469 99.894531 187.980469 99.894531 187.894531 98.210938 C 187.839844 97.074219 187.785156 95.933594 187.730469 94.761719 C 187.671875 93.605469 187.609375 92.445312 187.550781 91.253906 C 187.402344 88.402344 187.265625 85.554688 187.128906 82.703125 C 184.402344 84.066406 184.402344 84.066406 181.625 85.460938 C 182.078125 84.09375 182.53125 82.730469 183 81.324219 C 183.90625 80.871094 184.816406 80.414062 185.75 79.945312 Z M 185.75 79.945312 "/>
<path style=" stroke:none;fill-rule:nonzero;fill:rgb(8.235294%,18.039216%,41.960785%);fill-opacity:1;" d="M 260.050781 89.59375 C 264.140625 90.960938 268.226562 92.324219 272.4375 93.730469 C 271.980469 94.640625 271.527344 95.550781 271.058594 96.488281 C 269.242188 96.03125 267.425781 95.578125 265.554688 95.109375 C 264.195312 97.835938 262.832031 100.566406 261.429688 103.378906 C 260.519531 102.921875 259.613281 102.46875 258.675781 102 C 258.222656 102.910156 257.769531 103.820312 257.300781 104.757812 C 257.980469 105.894531 258.664062 107.03125 259.363281 108.203125 C 260.046875 109.339844 260.726562 110.476562 261.429688 111.648438 C 260.972656 112.558594 260.519531 113.46875 260.050781 114.40625 C 254.675781 107.875 254.675781 107.875 254.34375 103.324219 C 254.914062 97.695312 256.132812 93.695312 260.050781 89.59375 Z M 260.050781 89.59375 "/>
<path style=" stroke:none;fill-rule:nonzero;fill:rgb(19.607843%,69.803923%,74.901962%);fill-opacity:1;" d="M 319.21875 107.511719 C 320.125 107.96875 321.035156 108.421875 321.96875 108.890625 C 322.765625 116.546875 321.417969 120.976562 317.0625 127.34375 C 315.089844 129.566406 315.089844 129.566406 311.476562 131.203125 C 307.460938 130.886719 306.707031 129.707031 304.082031 126.8125 C 304.828125 126.574219 305.574219 126.335938 306.34375 126.089844 C 311.3125 124.136719 314.359375 122.820312 316.742188 117.863281 C 317.738281 114.425781 318.574219 111.035156 319.21875 107.511719 Z M 319.21875 107.511719 "/>
<path style=" stroke:none;fill-rule:nonzero;fill:rgb(12.54902%,21.176471%,44.313726%);fill-opacity:1;" d="M 39.902344 81.324219 C 41.265625 81.324219 42.625 81.324219 44.03125 81.324219 C 44.03125 92.351562 44.03125 103.378906 44.03125 114.40625 C 38.898438 107.886719 39.414062 101.886719 39.644531 93.988281 C 39.664062 92.769531 39.679688 91.550781 39.699219 90.296875 C 39.75 87.304688 39.824219 84.316406 39.902344 81.324219 Z M 39.902344 81.324219 "/>
<path style=" stroke:none;fill-rule:nonzero;fill:rgb(39.607844%,89.803922%,69.803923%);fill-opacity:1;" d="M 321.96875 136.460938 C 321.515625 137.824219 321.0625 139.1875 320.59375 140.59375 C 313.328125 143.984375 307.910156 145.226562 299.953125 144.730469 C 300.410156 142.910156 300.863281 141.089844 301.332031 139.214844 C 302.175781 139.035156 303.023438 138.851562 303.894531 138.660156 C 305.007812 138.417969 306.117188 138.175781 307.265625 137.925781 C 308.367188 137.683594 309.46875 137.445312 310.601562 137.195312 C 318.542969 135.316406 318.542969 135.316406 321.96875 136.460938 Z M 321.96875 136.460938 "/>
<path style=" stroke:none;fill-rule:nonzero;fill:rgb(31.764707%,74.509805%,68.627453%);fill-opacity:1;" d="M 337.105469 92.351562 C 338.921875 92.804688 340.738281 93.261719 342.609375 93.730469 C 347.347656 109.609375 347.347656 109.609375 346.738281 117.164062 C 343.984375 113.027344 343.984375 113.027344 343.382812 110.097656 C 343.128906 109.246094 342.871094 108.390625 342.609375 107.511719 C 341.246094 107.058594 339.882812 106.605469 338.480469 106.136719 C 338.027344 101.585938 337.574219 97.039062 337.105469 92.351562 Z M 337.105469 92.351562 "/>
<path style=" stroke:none;fill-rule:nonzero;fill:rgb(7.843138%,19.215687%,40.000001%);fill-opacity:1;" d="M 202.261719 88.214844 C 207.960938 87.769531 210.988281 87.621094 215.851562 90.800781 C 219.859375 94.816406 220.097656 95.933594 220.667969 101.742188 C 220.648438 106.832031 220.222656 107.429688 216.710938 111.648438 C 215.574219 112.558594 214.441406 113.46875 213.269531 114.40625 C 212.816406 113.496094 212.363281 112.585938 211.894531 111.648438 C 209.171875 111.648438 206.445312 111.648438 203.640625 111.648438 C 204.09375 110.738281 204.546875 109.828125 205.015625 108.890625 C 206.832031 108.890625 208.648438 108.890625 210.519531 108.890625 C 211.425781 107.980469 212.335938 107.074219 213.269531 106.136719 C 214.632812 106.136719 215.996094 106.136719 217.398438 106.136719 C 218.039062 100.625 217.871094 98.492188 214.476562 93.988281 C 210.195312 90.726562 207.566406 89.964844 202.261719 89.59375 C 202.261719 89.140625 202.261719 88.683594 202.261719 88.214844 Z M 202.261719 88.214844 "/>
<path style=" stroke:none;fill-rule:nonzero;fill:rgb(4.705882%,14.901961%,42.352942%);fill-opacity:1;" d="M 227.03125 93.730469 C 227.484375 93.730469 227.9375 93.730469 228.40625 93.730469 C 228.859375 99.644531 229.3125 105.554688 229.78125 111.648438 C 230.691406 111.648438 231.597656 111.648438 232.535156 111.648438 C 232.988281 110.738281 233.441406 109.828125 233.910156 108.890625 C 235.726562 109.347656 237.542969 109.800781 239.414062 110.269531 C 239.414062 112.089844 239.414062 113.910156 239.414062 115.785156 C 230.542969 116.285156 230.542969 116.285156 227.421875 114.226562 C 224.878906 110.519531 225.203125 107.65625 225.308594 103.207031 C 225.332031 101.722656 225.351562 100.242188 225.375 98.714844 C 225.652344 95.109375 225.652344 95.109375 227.03125 93.730469 Z M 227.03125 93.730469 "/>
<path style=" stroke:none;fill-rule:nonzero;fill:rgb(17.254902%,49.803922%,64.705884%);fill-opacity:1;" d="M 291.699219 62.027344 C 291.699219 62.9375 291.699219 63.847656 291.699219 64.785156 C 290.734375 65.085938 289.769531 65.386719 288.773438 65.699219 C 279.746094 68.722656 272.78125 72.347656 265.554688 78.566406 C 264.648438 78.113281 263.738281 77.65625 262.804688 77.1875 C 269.578125 69.640625 280.722656 58.363281 291.699219 62.027344 Z M 291.699219 62.027344 "/>
<path style=" stroke:none;fill-rule:nonzero;fill:rgb(26.274511%,70.980394%,69.803923%);fill-opacity:1;" d="M 321.847656 61.320312 C 323.3125 61.882812 323.3125 61.882812 324.808594 62.457031 C 325.789062 62.820312 326.769531 63.1875 327.78125 63.5625 C 330.226562 64.785156 330.226562 64.785156 331.601562 67.539062 C 330.695312 67.539062 329.785156 67.539062 328.851562 67.539062 C 329.304688 68.90625 329.757812 70.269531 330.226562 71.675781 C 325.101562 70.003906 320.074219 68.21875 315.089844 66.164062 C 315.542969 64.796875 316 63.433594 316.464844 62.027344 C 319.21875 60.648438 319.21875 60.648438 321.847656 61.320312 Z M 321.847656 61.320312 "/>
<path style=" stroke:none;fill-rule:nonzero;fill:rgb(7.058824%,20%,49.411765%);fill-opacity:1;" d="M 56.414062 93.730469 C 57.777344 93.730469 59.136719 93.730469 60.542969 93.730469 C 60.542969 100.550781 60.542969 107.375 60.542969 114.40625 C 59.179688 114.40625 57.816406 114.40625 56.414062 114.40625 C 56.414062 107.582031 56.414062 100.757812 56.414062 93.730469 Z M 56.414062 93.730469 "/>
<path style=" stroke:none;fill-rule:nonzero;fill:rgb(8.235294%,21.568628%,48.627451%);fill-opacity:1;" d="M 209.144531 89.59375 C 213.632812 92.082031 215.871094 93.5 218.773438 97.863281 C 218.945312 102.257812 218.945312 102.257812 218.773438 106.136719 C 216.957031 106.589844 215.140625 107.042969 213.269531 107.511719 C 213.089844 106.566406 212.90625 105.621094 212.71875 104.644531 C 212.472656 103.402344 212.230469 102.160156 211.980469 100.878906 C 211.742188 99.648438 211.5 98.417969 211.253906 97.148438 C 210.550781 93.574219 210.550781 93.574219 209.144531 89.59375 Z M 209.144531 89.59375 "/>
<path style=" stroke:none;fill-rule:nonzero;fill:rgb(11.372549%,20%,38.431373%);fill-opacity:1;" d="M 94.941406 79.945312 C 97.210938 79.945312 99.480469 79.945312 101.820312 79.945312 C 101.820312 83.128906 101.820312 86.3125 101.820312 89.59375 C 100.457031 87.773438 99.09375 85.957031 97.691406 84.082031 C 97.691406 94.542969 97.691406 105.003906 97.691406 115.785156 C 96.785156 115.785156 95.875 115.785156 94.941406 115.785156 C 94.941406 103.957031 94.941406 92.128906 94.941406 79.945312 Z M 94.941406 79.945312 "/>
<path style=" stroke:none;fill-rule:nonzero;fill:rgb(7.058824%,16.078432%,41.568628%);fill-opacity:1;" d="M 199.511719 89.59375 C 200.417969 89.59375 201.328125 89.59375 202.261719 89.59375 C 199.511719 95.109375 199.511719 95.109375 197.878906 97.605469 C 196.304688 101.847656 197.527344 103.800781 199.339844 107.859375 C 199.875 109.085938 200.410156 110.316406 200.960938 111.585938 C 201.390625 112.515625 201.820312 113.445312 202.261719 114.40625 C 196.972656 111.949219 196.972656 111.949219 195.039062 109.238281 C 193.664062 105.101562 193.488281 102.210938 194.007812 97.863281 C 196.585938 93.210938 196.585938 93.210938 199.511719 89.59375 Z M 199.511719 89.59375 "/>
<path style=" stroke:none;fill-rule:nonzero;fill:rgb(39.215687%,82.745099%,65.882355%);fill-opacity:1;" d="M 350.863281 86.835938 C 354.046875 90.027344 354.296875 91.632812 355.164062 95.96875 C 355.394531 97.097656 355.625 98.222656 355.863281 99.382812 C 356.113281 100.679688 356.113281 100.679688 356.367188 102 C 355.460938 102 354.550781 102 353.617188 102 C 353.617188 100.179688 353.617188 98.359375 353.617188 96.488281 C 352.707031 96.488281 351.800781 96.488281 350.863281 96.488281 C 350.863281 99.671875 350.863281 102.855469 350.863281 106.136719 C 348.273438 101.632812 347.433594 97.476562 346.738281 92.351562 C 348.097656 92.351562 349.460938 92.351562 350.863281 92.351562 C 350.863281 90.53125 350.863281 88.710938 350.863281 86.835938 Z M 350.863281 86.835938 "/>
<path style=" stroke:none;fill-rule:nonzero;fill:rgb(8.627451%,21.960784%,52.156866%);fill-opacity:1;" d="M 111.449219 89.59375 C 114.828125 94.667969 114.515625 98.476562 114.375 104.324219 C 114.363281 105.292969 114.351562 106.261719 114.335938 107.257812 C 114.304688 109.640625 114.253906 112.023438 114.203125 114.40625 C 113.75 114.40625 113.292969 114.40625 112.828125 114.40625 C 112.828125 108.945312 112.828125 103.488281 112.828125 97.863281 C 111.917969 97.863281 111.011719 97.863281 110.074219 97.863281 C 110.074219 96.5 110.074219 95.136719 110.074219 93.730469 C 107.804688 93.730469 105.535156 93.730469 103.195312 93.730469 C 106.808594 89.59375 106.808594 89.59375 111.449219 89.59375 Z M 111.449219 89.59375 "/>
<path style=" stroke:none;fill-rule:nonzero;fill:rgb(11.764706%,19.215687%,39.607844%);fill-opacity:1;" d="M 158.234375 90.972656 C 158.6875 90.972656 159.140625 90.972656 159.609375 90.972656 C 159.609375 98.25 159.609375 105.527344 159.609375 113.027344 C 160.515625 113.027344 161.425781 113.027344 162.359375 113.027344 C 162.816406 111.207031 163.269531 109.386719 163.738281 107.511719 C 163.738281 110.242188 163.738281 112.972656 163.738281 115.785156 C 162.375 116.238281 161.011719 116.695312 159.609375 117.164062 C 158.699219 116.707031 157.792969 116.253906 156.855469 115.785156 C 157.539062 103.503906 157.539062 103.503906 158.234375 90.972656 Z M 158.234375 90.972656 "/>
<path style=" stroke:none;fill-rule:nonzero;fill:rgb(19.607843%,69.803923%,80.000001%);fill-opacity:1;" d="M 331.601562 104.757812 C 334.484375 109.449219 335.035156 113.074219 334.351562 118.539062 C 331.570312 121.554688 331.570312 121.554688 328.851562 124.054688 C 329.042969 121.355469 329.246094 118.65625 329.453125 115.957031 C 329.5625 114.453125 329.675781 112.949219 329.789062 111.402344 C 330.226562 107.511719 330.226562 107.511719 331.601562 104.757812 Z M 331.601562 104.757812 "/>
<path style=" stroke:none;fill-rule:nonzero;fill:rgb(9.411765%,18.431373%,37.64706%);fill-opacity:1;" d="M 231.15625 82.703125 C 231.613281 82.703125 232.066406 82.703125 232.535156 82.703125 C 232.535156 84.976562 232.535156 87.25 232.535156 89.59375 C 234.351562 89.59375 236.167969 89.59375 238.039062 89.59375 C 238.039062 91.414062 238.039062 93.234375 238.039062 95.109375 C 236.675781 94.652344 235.3125 94.199219 233.910156 93.730469 C 234.816406 93.730469 235.726562 93.730469 236.660156 93.730469 C 236.660156 92.820312 236.660156 91.910156 236.660156 90.972656 C 234.84375 90.972656 233.027344 90.972656 231.15625 90.972656 C 231.15625 90.0625 231.15625 89.152344 231.15625 88.214844 C 230.363281 89.097656 229.570312 89.980469 228.75 90.886719 C 225.59375 93.785156 224.191406 94.300781 220.148438 95.109375 C 221.46875 93.554688 222.785156 92.003906 224.105469 90.457031 C 224.839844 89.59375 225.574219 88.730469 226.332031 87.839844 C 227.875 86.066406 229.5 84.367188 231.15625 82.703125 Z M 231.15625 82.703125 "/>
<path style=" stroke:none;fill-rule:nonzero;fill:rgb(34.509805%,88.627452%,72.941178%);fill-opacity:1;" d="M 342.609375 106.136719 C 343.0625 106.136719 343.515625 106.136719 343.984375 106.136719 C 345.382812 114.117188 345.308594 119.171875 342.609375 126.8125 C 339.378906 121.957031 339.671875 120.550781 340.289062 114.921875 C 340.421875 113.570312 340.558594 112.214844 340.699219 110.820312 C 341.234375 107.511719 341.234375 107.511719 342.609375 106.136719 Z M 342.609375 106.136719 "/>
<path style=" stroke:none;fill-rule:nonzero;fill:rgb(9.019608%,23.137255%,53.333336%);fill-opacity:1;" d="M 262.804688 89.59375 C 268.273438 88.957031 270.464844 89.167969 275.015625 92.4375 C 278.585938 97.382812 278.523438 100.164062 277.941406 106.136719 C 277.484375 106.136719 277.03125 106.136719 276.5625 106.136719 C 276.5625 103.40625 276.5625 100.675781 276.5625 97.863281 C 275.203125 97.410156 273.839844 96.957031 272.4375 96.488281 C 271.980469 95.578125 271.527344 94.667969 271.058594 93.730469 C 268.335938 92.726562 265.585938 91.800781 262.804688 90.972656 C 262.804688 90.519531 262.804688 90.0625 262.804688 89.59375 Z M 262.804688 89.59375 "/>
<path style=" stroke:none;fill-rule:nonzero;fill:rgb(5.490196%,20%,49.019608%);fill-opacity:1;" d="M 70.171875 111.648438 C 73.351562 112.101562 76.53125 112.558594 79.804688 113.027344 C 78.894531 113.9375 77.988281 114.847656 77.050781 115.785156 C 75.238281 115.785156 73.421875 115.785156 71.550781 115.785156 C 72.003906 118.511719 72.457031 121.242188 72.925781 124.054688 C 71.109375 123.144531 69.292969 122.234375 67.421875 121.296875 C 68.328125 118.113281 69.238281 114.929688 70.171875 111.648438 Z M 70.171875 111.648438 "/>
<path style=" stroke:none;fill-rule:nonzero;fill:rgb(9.019608%,23.137255%,51.764709%);fill-opacity:1;" d="M 258.675781 97.863281 C 264.179688 108.5 264.179688 108.5 264.179688 114.40625 C 257.695312 108.40625 257.695312 108.40625 256.011719 104.585938 C 255.925781 102 255.925781 102 258.675781 97.863281 Z M 258.675781 97.863281 "/>
<path style=" stroke:none;fill-rule:nonzero;fill:rgb(30.980393%,65.098041%,71.764708%);fill-opacity:1;" d="M 319.21875 107.511719 C 320.125 107.96875 321.035156 108.421875 321.96875 108.890625 C 322.402344 116.144531 321.511719 120.535156 317.84375 126.8125 C 316.25 122.019531 316.777344 119.730469 317.757812 114.835938 C 318.023438 113.464844 318.292969 112.097656 318.566406 110.683594 C 318.78125 109.636719 318.996094 108.589844 319.21875 107.511719 Z M 319.21875 107.511719 "/>
<path style=" stroke:none;fill-rule:nonzero;fill:rgb(40.392157%,84.313726%,67.058825%);fill-opacity:1;" d="M 356.367188 103.378906 C 356.824219 103.378906 357.277344 103.378906 357.746094 103.378906 C 357.746094 107.015625 357.746094 110.65625 357.746094 114.40625 C 355.078125 115.179688 355.078125 115.179688 352.242188 115.785156 C 350.863281 114.40625 350.863281 114.40625 350.777344 110.875 C 350.808594 109.765625 350.835938 108.65625 350.863281 107.511719 C 351.773438 107.058594 352.679688 106.605469 353.617188 106.136719 C 354.523438 107.953125 355.433594 109.773438 356.367188 111.648438 C 356.367188 108.917969 356.367188 106.191406 356.367188 103.378906 Z M 356.367188 103.378906 "/>
<path style=" stroke:none;fill-rule:nonzero;fill:rgb(9.411765%,21.176471%,45.490196%);fill-opacity:1;" d="M 228.40625 88.214844 C 229.3125 88.214844 230.222656 88.214844 231.15625 88.214844 C 231.15625 89.125 231.15625 90.035156 231.15625 90.972656 C 232.972656 90.972656 234.789062 90.972656 236.660156 90.972656 C 236.660156 91.882812 236.660156 92.792969 236.660156 93.730469 C 235.300781 94.410156 235.300781 94.410156 233.910156 95.109375 C 233.265625 98.355469 233.265625 98.355469 233.050781 102.085938 C 232.945312 103.351562 232.84375 104.621094 232.738281 105.925781 C 232.671875 106.902344 232.601562 107.882812 232.535156 108.890625 C 232.078125 108.890625 231.625 108.890625 231.15625 108.890625 C 231.058594 107.148438 231.058594 107.148438 230.953125 105.371094 C 230.851562 103.859375 230.746094 102.351562 230.640625 100.792969 C 230.546875 99.289062 230.449219 97.789062 230.351562 96.238281 C 230.148438 92.171875 230.148438 92.171875 227.03125 89.59375 C 227.484375 89.140625 227.9375 88.683594 228.40625 88.214844 Z M 228.40625 88.214844 "/>
<path style=" stroke:none;fill-rule:nonzero;fill:rgb(5.490196%,16.078432%,43.529412%);fill-opacity:1;" d="M 26.144531 88.214844 C 27.503906 88.671875 28.867188 89.125 30.269531 89.59375 C 31.277344 92.441406 31.277344 92.441406 31.90625 95.882812 C 32.121094 97.023438 32.339844 98.160156 32.566406 99.335938 C 32.714844 100.214844 32.867188 101.09375 33.023438 102 C 29.667969 99.34375 26.417969 96.761719 23.390625 93.730469 C 24.300781 91.910156 25.207031 90.089844 26.144531 88.214844 Z M 26.144531 88.214844 "/>
<path style=" stroke:none;fill-rule:nonzero;fill:rgb(15.686275%,64.313728%,72.941178%);fill-opacity:1;" d="M 328.851562 84.082031 C 333.929688 85.351562 336.082031 86.21875 339.855469 89.59375 C 339.855469 90.503906 339.855469 91.414062 339.855469 92.351562 C 338.949219 92.351562 338.039062 92.351562 337.105469 92.351562 C 336.652344 93.714844 336.195312 95.082031 335.730469 96.488281 C 333.460938 92.394531 331.1875 88.300781 328.851562 84.082031 Z M 328.851562 84.082031 "/>
<path style=" stroke:none;fill-rule:nonzero;fill:rgb(8.235294%,14.901961%,37.254903%);fill-opacity:1;" d="M 55.039062 79.945312 C 57.308594 80.402344 59.578125 80.855469 61.917969 81.324219 C 61.402344 83.996094 61.402344 83.996094 60.542969 86.835938 C 59.179688 87.519531 59.179688 87.519531 57.789062 88.214844 C 56.425781 87.304688 55.066406 86.398438 53.660156 85.460938 C 54.117188 83.640625 54.570312 81.820312 55.039062 79.945312 Z M 55.039062 79.945312 "/>
<path style=" stroke:none;fill-rule:nonzero;fill:rgb(8.235294%,20.392157%,45.490196%);fill-opacity:1;" d="M 85.308594 113.027344 C 88.144531 113.628906 88.144531 113.628906 90.8125 114.40625 C 90.984375 117.679688 90.984375 117.679688 90.8125 121.296875 C 89.902344 122.207031 88.996094 123.117188 88.058594 124.054688 C 86.699219 124.054688 85.335938 124.054688 83.933594 124.054688 C 84.839844 121.324219 85.75 118.59375 86.683594 115.785156 C 85.777344 115.328125 84.867188 114.875 83.933594 114.40625 C 84.386719 113.949219 84.839844 113.496094 85.308594 113.027344 Z M 85.308594 113.027344 "/>
<path style=" stroke:none;fill-rule:nonzero;fill:rgb(9.019608%,21.960784%,51.372552%);fill-opacity:1;" d="M 27.519531 93.730469 C 29.660156 96.945312 31.539062 99.832031 33.023438 103.378906 C 32.570312 104.289062 32.113281 105.199219 31.648438 106.136719 C 27.519531 104.757812 27.519531 104.757812 25.800781 102.171875 C 24.765625 99.242188 24.765625 99.242188 26.144531 95.109375 C 26.597656 94.652344 27.050781 94.199219 27.519531 93.730469 Z M 27.519531 93.730469 "/>
<path style=" stroke:none;fill-rule:nonzero;fill:rgb(10.588235%,24.705882%,53.333336%);fill-opacity:1;" d="M 162.359375 82.703125 C 163.269531 83.15625 164.175781 83.613281 165.113281 84.082031 C 165.113281 84.992188 165.113281 85.902344 165.113281 86.835938 C 166.019531 87.292969 166.929688 87.746094 167.863281 88.214844 C 166.488281 92.351562 166.488281 92.351562 163.652344 93.988281 C 162.769531 94.359375 161.890625 94.726562 160.984375 95.109375 C 160.8125 85.804688 160.8125 85.804688 162.359375 82.703125 Z M 162.359375 82.703125 "/>
<path style=" stroke:none;fill-rule:nonzero;fill:rgb(7.450981%,17.647059%,40.392157%);fill-opacity:1;" d="M 243.542969 79.945312 C 245.8125 80.402344 248.082031 80.855469 250.421875 81.324219 C 249.96875 83.144531 249.511719 84.964844 249.046875 86.835938 C 246.773438 86.382812 244.503906 85.929688 242.164062 85.460938 C 242.621094 83.640625 243.074219 81.820312 243.542969 79.945312 Z M 243.542969 79.945312 "/>
<path style=" stroke:none;fill-rule:nonzero;fill:rgb(8.627451%,21.960784%,51.372552%);fill-opacity:1;" d="M 15.136719 99.242188 C 16.042969 99.699219 16.953125 100.152344 17.886719 100.621094 C 16.582031 105.246094 15.277344 109.847656 13.757812 114.40625 C 12.398438 113.949219 11.035156 113.496094 9.632812 113.027344 C 10.292969 107.210938 11.234375 103.660156 15.136719 99.242188 Z M 15.136719 99.242188 "/>
<path style=" stroke:none;fill-rule:nonzero;fill:rgb(10.196079%,17.647059%,35.294119%);fill-opacity:1;" d="M 130.714844 82.703125 C 130.714844 84.976562 130.714844 87.25 130.714844 89.59375 C 129.835938 89.738281 128.953125 89.878906 128.046875 90.023438 C 127.113281 90.339844 126.175781 90.652344 125.210938 90.972656 C 124.757812 92.335938 124.300781 93.703125 123.835938 95.109375 C 122.472656 95.109375 121.109375 95.109375 119.707031 95.109375 C 121.375 91.003906 125.785156 82.703125 130.714844 82.703125 Z M 130.714844 82.703125 "/>
<path style=" stroke:none;fill-rule:nonzero;fill:rgb(33.725491%,82.745099%,72.156864%);fill-opacity:1;" d="M 321.96875 129.566406 C 323.785156 129.566406 325.601562 129.566406 327.472656 129.566406 C 327.042969 132.152344 327.042969 132.152344 326.097656 135.082031 C 324.734375 135.992188 323.375 136.902344 321.96875 137.835938 C 321.0625 136.929688 320.152344 136.019531 319.21875 135.082031 C 320.125 133.261719 321.035156 131.441406 321.96875 129.566406 Z M 321.96875 129.566406 "/>
<path style=" stroke:none;fill-rule:nonzero;fill:rgb(11.372549%,20.392157%,40.784314%);fill-opacity:1;" d="M 232.535156 108.890625 C 234.804688 109.347656 237.074219 109.800781 239.414062 110.269531 C 239.414062 112.089844 239.414062 113.910156 239.414062 115.785156 C 236.234375 115.785156 233.058594 115.785156 229.78125 115.785156 C 229.328125 114.875 228.875 113.964844 228.40625 113.027344 C 229.769531 112.570312 231.128906 112.117188 232.535156 111.648438 C 232.535156 110.738281 232.535156 109.828125 232.535156 108.890625 Z M 232.535156 108.890625 "/>
<path style=" stroke:none;fill-rule:nonzero;fill:rgb(8.627451%,18.431373%,37.64706%);fill-opacity:1;" d="M 130.714844 89.59375 C 132.984375 89.59375 135.253906 89.59375 137.59375 89.59375 C 137.59375 91.414062 137.59375 93.234375 137.59375 95.109375 C 135.324219 95.109375 133.054688 95.109375 130.714844 95.109375 C 130.714844 97.382812 130.714844 99.65625 130.714844 102 C 130.261719 102 129.804688 102 129.339844 102 C 129.339844 99.269531 129.339844 96.542969 129.339844 93.730469 C 130.246094 93.273438 131.15625 92.820312 132.089844 92.351562 C 131.636719 91.441406 131.183594 90.53125 130.714844 89.59375 Z M 130.714844 89.59375 "/>
<path style=" stroke:none;fill-rule:nonzero;fill:rgb(21.568628%,74.509805%,76.862746%);fill-opacity:1;" d="M 319.21875 60.648438 C 321.941406 61.558594 324.667969 62.46875 327.472656 63.40625 C 327.019531 64.769531 326.566406 66.132812 326.097656 67.539062 C 322.464844 66.628906 318.832031 65.722656 315.089844 64.785156 C 316.453125 63.417969 317.816406 62.054688 319.21875 60.648438 Z M 319.21875 60.648438 "/>
<path style=" stroke:none;fill-rule:nonzero;fill:rgb(10.196079%,23.137255%,54.901963%);fill-opacity:1;" d="M 184.375 82.703125 C 185.285156 82.703125 186.191406 82.703125 187.128906 82.703125 C 187.582031 85.433594 188.035156 88.160156 188.503906 90.972656 C 186.234375 90.972656 183.964844 90.972656 181.625 90.972656 C 182.828125 84.253906 182.828125 84.253906 184.375 82.703125 Z M 184.375 82.703125 "/>
<path style=" stroke:none;fill-rule:nonzero;fill:rgb(37.64706%,73.725492%,61.56863%);fill-opacity:1;" d="M 287.570312 121.296875 C 292.1875 122.125 294.972656 123.84375 298.578125 126.8125 C 290.667969 125.605469 290.667969 125.605469 287.570312 124.054688 C 288.480469 125.875 289.386719 127.691406 290.324219 129.566406 C 288.960938 129.113281 287.597656 128.65625 286.195312 128.1875 C 286.648438 125.914062 287.105469 123.640625 287.570312 121.296875 Z M 287.570312 121.296875 "/>
<path style=" stroke:none;fill-rule:nonzero;fill:rgb(10.196079%,21.568628%,49.803922%);fill-opacity:1;" d="M 78.429688 90.972656 C 80.699219 90.972656 82.96875 90.972656 85.308594 90.972656 C 86.59375 95.121094 86.746094 96.300781 85.308594 100.621094 C 84.398438 100.621094 83.492188 100.621094 82.554688 100.621094 C 82.386719 99.285156 82.214844 97.949219 82.039062 96.574219 C 81.757812 95.179688 81.472656 93.785156 81.179688 92.351562 C 80.273438 91.898438 79.363281 91.441406 78.429688 90.972656 Z M 78.429688 90.972656 "/>
<path style=" stroke:none;fill-rule:nonzero;fill:rgb(28.627452%,63.921571%,73.725492%);fill-opacity:1;" d="M 316.390625 72.445312 C 317.378906 72.84375 318.371094 73.246094 319.390625 73.65625 C 320.386719 74.054688 321.382812 74.449219 322.410156 74.859375 C 323.171875 75.171875 323.9375 75.488281 324.722656 75.8125 C 324.722656 76.265625 324.722656 76.71875 324.722656 77.1875 C 315.746094 77.699219 315.746094 77.699219 312.425781 75.121094 C 311.699219 74.097656 311.699219 74.097656 310.960938 73.054688 C 313.714844 71.675781 313.714844 71.675781 316.390625 72.445312 Z M 316.390625 72.445312 "/>
<path style=" stroke:none;fill-rule:nonzero;fill:rgb(37.254903%,85.882354%,70.19608%);fill-opacity:1;" d="M 321.96875 136.460938 C 321.515625 137.824219 321.0625 139.1875 320.59375 140.59375 C 317.757812 141.542969 317.757812 141.542969 315.089844 141.972656 C 315.089844 141.0625 315.089844 140.152344 315.089844 139.214844 C 314.183594 138.761719 313.273438 138.304688 312.339844 137.835938 C 317.324219 134.910156 317.324219 134.910156 321.96875 136.460938 Z M 321.96875 136.460938 "/>
<path style=" stroke:none;fill-rule:nonzero;fill:rgb(5.490196%,19.607843%,49.019608%);fill-opacity:1;" d="M 70.171875 93.730469 C 72.269531 97.777344 74.027344 101.886719 75.675781 106.136719 C 74.316406 106.589844 72.953125 107.042969 71.550781 107.511719 C 69.019531 102.300781 68.578125 99.316406 70.171875 93.730469 Z M 70.171875 93.730469 "/>
<path style=" stroke:none;fill-rule:nonzero;fill:rgb(29.019609%,77.254903%,69.803923%);fill-opacity:1;" d="M 328.851562 67.539062 C 332.253906 68.222656 332.253906 68.222656 335.730469 68.917969 C 335.273438 70.285156 334.820312 71.648438 334.351562 73.054688 C 334.351562 74.417969 334.351562 75.785156 334.351562 77.1875 C 328.851562 70.640625 328.851562 70.640625 328.851562 67.539062 Z M 328.851562 67.539062 "/>
<path style=" stroke:none;fill-rule:nonzero;fill:rgb(25.882354%,63.529414%,70.19608%);fill-opacity:1;" d="M 328.851562 100.621094 C 329.757812 100.621094 330.664062 100.621094 331.601562 100.621094 C 333.113281 105.167969 332.800781 106.691406 331.6875 111.21875 C 331.417969 112.332031 331.152344 113.445312 330.875 114.59375 C 330.554688 115.863281 330.554688 115.863281 330.226562 117.164062 C 329.773438 117.164062 329.316406 117.164062 328.851562 117.164062 C 328.851562 111.703125 328.851562 106.246094 328.851562 100.621094 Z M 328.851562 100.621094 "/>
<path style=" stroke:none;fill-rule:nonzero;fill:rgb(23.137255%,78.039217%,78.823531%);fill-opacity:1;" d="M 337.105469 92.351562 C 338.011719 92.351562 338.921875 92.351562 339.855469 92.351562 C 342.734375 98.457031 342.734375 98.457031 342.09375 102.429688 C 341.808594 103.199219 341.527344 103.964844 341.234375 104.757812 C 337.105469 97.003906 337.105469 97.003906 337.105469 92.351562 Z M 337.105469 92.351562 "/>
<path style=" stroke:none;fill-rule:nonzero;fill:rgb(18.82353%,42.352942%,53.725493%);fill-opacity:1;" d="M 272.4375 67.539062 C 273.34375 67.996094 274.253906 68.449219 275.1875 68.917969 C 271.265625 73.066406 267.984375 76.195312 262.804688 78.566406 C 264.152344 76.988281 265.5 75.410156 266.847656 73.828125 C 267.597656 72.949219 268.347656 72.070312 269.121094 71.164062 C 270.191406 69.925781 271.28125 68.699219 272.4375 67.539062 Z M 272.4375 67.539062 "/>
<path style=" stroke:none;fill-rule:nonzero;fill:rgb(37.64706%,90.980393%,71.764708%);fill-opacity:1;" d="M 287.570312 124.054688 C 291.203125 124.964844 294.835938 125.875 298.578125 126.8125 C 294.449219 129.566406 294.449219 129.566406 291.527344 129.308594 C 290.675781 128.941406 289.824219 128.570312 288.949219 128.1875 C 288.492188 126.824219 288.039062 125.460938 287.570312 124.054688 Z M 287.570312 124.054688 "/>
<path style=" stroke:none;fill-rule:nonzero;fill:rgb(0%,0%,0%);fill-opacity:1;" d="M 287.570312 74.433594 C 290.324219 75.8125 290.324219 75.8125 290.324219 75.8125 Z M 287.570312 74.433594 "/>
</g>
</svg>
