<?xml version="1.0" encoding="UTF-8"?>
<svg version="1.1" xmlns="http://www.w3.org/2000/svg" width="270" height="148">
<path d="M0 0 C4.20963275 1.25274613 8.04566281 2.99000546 11.9921875 4.90234375 C12.75917969 5.26263672 13.52617187 5.62292969 14.31640625 5.99414062 C19.96830357 8.69095982 19.96830357 8.69095982 22.2421875 10.96484375 C23.83451802 21.69362141 23.3986791 32.87197844 23.37255859 43.69189453 C23.36715239 46.35715305 23.37256389 49.02224625 23.37890625 51.6875 C23.37824605 53.41276078 23.3769661 55.13802146 23.375 56.86328125 C23.37702423 57.64472504 23.37904846 58.42616882 23.38113403 59.23129272 C23.364834 63.11856449 23.23701204 66.98949249 22.93701172 70.86572266 C22.88310272 71.58772858 22.82919373 72.3097345 22.77365112 73.05361938 C22.08976886 75.51296446 21.07977792 76.24481887 18.9921875 77.65234375 C17.42799455 78.46131153 15.8411059 79.22688141 14.2421875 79.96484375 C13.17097656 80.50367187 12.09976563 81.0425 10.99609375 81.59765625 C0.84383456 86.55278843 0.84383456 86.55278843 -3.7578125 85.96484375 C-4.7478125 85.30484375 -5.7378125 84.64484375 -6.7578125 83.96484375 C-6.7578125 83.30484375 -6.7578125 82.64484375 -6.7578125 81.96484375 C-7.34046875 81.71089844 -7.923125 81.45695312 -8.5234375 81.1953125 C-10.99969283 79.83164042 -12.56301876 78.32259172 -14.5078125 76.27734375 C-17.72313542 72.97912116 -21.0371794 69.90876664 -24.52734375 66.90625 C-29.0084145 63.00591346 -33.37206879 58.97167211 -37.7578125 54.96484375 C-42.31027151 57.91902938 -46.41282925 61.12827178 -50.51171875 64.671875 C-52.7578125 65.96484375 -52.7578125 65.96484375 -55.328125 65.8046875 C-59.11246989 64.49659401 -60.94206968 62.84606897 -63.7578125 59.96484375 C-64.5078125 57.52734375 -64.5078125 57.52734375 -63.7578125 54.96484375 C-61.98002382 52.69142913 -60.06453871 50.70385237 -57.7578125 48.96484375 C-57.0978125 48.96484375 -56.4378125 48.96484375 -55.7578125 48.96484375 C-55.7578125 48.30484375 -55.7578125 47.64484375 -55.7578125 46.96484375 C-54.13227967 45.25803428 -52.46665255 43.5882418 -50.7578125 41.96484375 C-51.31855469 41.72378906 -51.87929687 41.48273437 -52.45703125 41.234375 C-55.24240739 39.69745268 -57.27761383 37.85614942 -59.5703125 35.65234375 C-60.38113281 34.89308594 -61.19195312 34.13382813 -62.02734375 33.3515625 C-63.7578125 30.96484375 -63.7578125 30.96484375 -63.7421875 28.37890625 C-62.61940005 25.62540368 -61.52241022 24.47171106 -59.1953125 22.65234375 C-58.55464844 22.14058594 -57.91398437 21.62882812 -57.25390625 21.1015625 C-56.76019531 20.72644531 -56.26648438 20.35132812 -55.7578125 19.96484375 C-51.4004899 21.43614748 -48.03847116 23.7956499 -44.4453125 26.58984375 C-43.89552734 27.01007812 -43.34574219 27.4303125 -42.77929688 27.86328125 C-41.43489082 28.89204414 -40.09579837 29.92774465 -38.7578125 30.96484375 C-34.59075413 28.24968226 -31.1923236 25.56689198 -27.7578125 21.96484375 C-22.96152262 17.03860513 -17.9982496 12.41498154 -12.7578125 7.96484375 C-11.51064453 6.84916016 -11.51064453 6.84916016 -10.23828125 5.7109375 C-9.37847656 4.96972656 -8.51867187 4.22851562 -7.6328125 3.46484375 C-6.84648437 2.77390625 -6.06015625 2.08296875 -5.25 1.37109375 C-2.7578125 -0.03515625 -2.7578125 -0.03515625 0 0 Z M-7.8828125 30.58984375 C-9.05570103 31.5068796 -10.22887784 32.42354685 -11.40234375 33.33984375 C-11.9742041 33.7884375 -12.54606445 34.23703125 -13.13525391 34.69921875 C-16.30492677 37.17162082 -19.5344851 39.56314883 -22.7578125 41.96484375 C-21.2210065 46.03231831 -18.65550074 47.82093277 -15.1953125 50.33984375 C-14.20402344 51.06945312 -13.21273437 51.7990625 -12.19140625 52.55078125 C-8.09760812 55.42901475 -3.92167444 58.18893579 0.2421875 60.96484375 C0.2421875 49.41484375 0.2421875 37.86484375 0.2421875 25.96484375 C-3.10978722 25.96484375 -5.34807288 28.58021096 -7.8828125 30.58984375 Z " fill="#0284CF" transform="translate(155.7578125,12.03515625)"/>
<path d="M0 0 C3.65937356 0.57188973 6.74463984 1.12131876 10.05078125 2.8125 C10.74880859 3.16570313 11.44683594 3.51890625 12.16601562 3.8828125 C12.87435547 4.25148438 13.58269531 4.62015625 14.3125 5 C15.04017578 5.36867188 15.76785156 5.73734375 16.51757812 6.1171875 C21.83068452 8.83068452 21.83068452 8.83068452 23 10 C24.27069364 20.84365014 24.15668593 31.82663728 24.13037109 42.72705078 C24.12496489 45.3923093 24.13037639 48.0574025 24.13671875 50.72265625 C24.13605855 52.44791703 24.1347786 54.17317771 24.1328125 55.8984375 C24.13483673 56.67988129 24.13686096 57.46132507 24.13894653 58.26644897 C24.1226465 62.15372074 23.99482454 66.02464874 23.69482422 69.90087891 C23.64091522 70.62288483 23.58700623 71.34489075 23.53146362 72.08877563 C22.84762497 74.54796387 21.83737476 75.28001705 19.75 76.6875 C18.18584685 77.49654473 16.59884803 78.2618852 15 79 C13.35837891 79.82564453 13.35837891 79.82564453 11.68359375 80.66796875 C2.48217928 85.16072643 2.48217928 85.16072643 -1 84 C-0.505 83.505 -0.505 83.505 0 83 C0.09507821 80.41360962 0.12556376 77.8540144 0.11352539 75.26733398 C0.11374443 74.05279541 0.11374443 74.05279541 0.1139679 72.8137207 C0.11326854 70.12448492 0.1054751 67.43531751 0.09765625 64.74609375 C0.09579215 62.88664284 0.09436821 61.02719144 0.09336853 59.16773987 C0.08954271 54.26370904 0.07971188 49.35970764 0.06866455 44.45568848 C0.05845181 39.45548908 0.05387121 34.45528494 0.04882812 29.45507812 C0.03808967 19.63670579 0.02101248 9.81835534 0 0 Z " fill="#21A8F0" transform="translate(155,13)"/>
<path d="M0 0 C0.59192139 0.2067334 1.18384277 0.4134668 1.79370117 0.62646484 C1.46370117 0.95646484 1.13370117 1.28646484 0.79370117 1.62646484 C0.76743667 3.20458615 0.8057606 4.78388327 0.87182617 6.36083984 C0.89760742 7.32763672 0.92338867 8.29443359 0.94995117 9.29052734 C1.01199326 11.33274601 1.08988508 13.37455033 1.18432617 15.41552734 C1.34296786 22.89151685 1.34296786 22.89151685 -1.41333008 26.57958984 C-2.33500977 27.25505859 -3.25668945 27.93052734 -4.20629883 28.62646484 C-5.01969727 29.30708984 -5.8330957 29.98771484 -6.67114258 30.68896484 C-7.89510742 31.64802734 -7.89510742 31.64802734 -9.14379883 32.62646484 C-12.04663189 34.91066135 -14.91258245 37.2102777 -17.70629883 39.62646484 C-20.20629883 41.62646484 -20.20629883 41.62646484 -22.20629883 41.62646484 C-21.40192383 42.41021484 -20.59754883 43.19396484 -19.76879883 44.00146484 C-17.20629883 46.62646484 -17.20629883 46.62646484 -16.20629883 48.62646484 C-19.51879883 47.93896484 -19.51879883 47.93896484 -23.20629883 46.62646484 C-24.21122055 44.96276111 -25.21060878 43.29570992 -26.20629883 41.62646484 C-28.75758282 39.46892232 -31.41668675 37.54742922 -34.12426758 35.59130859 C-34.81133789 34.94291016 -35.4984082 34.29451172 -36.20629883 33.62646484 C-36.20629883 29.62646484 -36.20629883 29.62646484 -34.10864258 27.32177734 C-33.13024414 26.47357422 -32.1518457 25.62537109 -31.14379883 24.75146484 C-30.04372167 23.78398553 -28.94481999 22.81516845 -27.84692383 21.84521484 C-27.2584668 21.32958984 -26.67000977 20.81396484 -26.0637207 20.28271484 C-24.11460202 18.54469945 -22.21154753 16.76610714 -20.31567383 14.97021484 C-19.66348877 14.35259277 -19.01130371 13.7349707 -18.33935547 13.09863281 C-17.07343161 11.89672794 -15.80948759 10.69273316 -14.54785156 9.48632812 C-3.80356399 -0.64395849 -3.80356399 -0.64395849 0 0 Z " fill="#0472B6" transform="translate(155.206298828125,12.37353515625)"/>
<path d="M0 0 C2.4375 2.25 2.4375 2.25 5 5 C8.01284462 8.23256242 8.01284462 8.23256242 12 10 C11.67 10.99 11.34 11.98 11 13 C10.01 13 9.02 13 8 13 C5.21480074 15.09073664 2.55369596 17.26420313 -0.0859375 19.53320312 C-4.34956116 23.01220159 -4.34956116 23.01220159 -7.70703125 22.94921875 C-11.31957217 21.45373759 -13.24089579 19.82326943 -16 17 C-16.75 14.5625 -16.75 14.5625 -16 12 C-14.22221132 9.72658538 -12.30672621 7.73900862 -10 6 C-9.34 6 -8.68 6 -8 6 C-8 5.34 -8 4.68 -8 4 C-3.64705882 0 -3.64705882 0 0 0 Z " fill="#066AAC" transform="translate(108,55)"/>
<path d="M0 0 C1.65 0.33 3.3 0.66 5 1 C5 9.58 5 18.16 5 27 C0.14907425 27.97018515 -3.12915947 28.46388957 -8 28 C-10.77042337 25.85292189 -11.79296012 24.3160121 -12.33984375 20.83984375 C-12.53738621 16.10672635 -12.08120554 12.79225297 -9 9 C-6.04335481 7.5216774 -3.25770263 7.93967217 0 8 C0 5.36 0 2.72 0 0 Z M-7.1875 12.5625 C-9.65485184 15.88066282 -9.51451424 17.95738812 -9 22 C-8.03882095 24.12870693 -8.03882095 24.12870693 -6 25 C-2.16733708 24.85909916 -2.16733708 24.85909916 1 23 C1.23819228 20.70384446 1.23819228 20.70384446 1.25 18.0625 C1.27578125 17.16660156 1.3015625 16.27070313 1.328125 15.34765625 C1.21984375 14.57292969 1.1115625 13.79820313 1 13 C-2.47660389 10.68226407 -3.72336579 10.08811842 -7.1875 12.5625 Z " fill="#215E96" transform="translate(249,112)"/>
<path d="M0 0 C0.99 0 1.98 0 3 0 C3.22801811 3.35312796 3.42881968 6.70737072 3.625 10.0625 C3.68945312 11.00544922 3.75390625 11.94839844 3.8203125 12.91992188 C4.12879889 18.4533965 3.89759544 22.77799117 2 28 C-7.9222395 28.61586314 -7.9222395 28.61586314 -11.625 26.5 C-13.50946906 23.07369262 -14.20091702 19.86951306 -14 16 C-12.49717203 11.94236447 -11.61841259 10.41227506 -8 8 C-5.66800612 7.92094936 -3.33167378 7.91201231 -1 8 C-0.67 5.36 -0.34 2.72 0 0 Z M-8.1875 12 C-10.26577416 14.29326804 -10.32729454 15.00241149 -10.4375 18 C-10.29625014 20.55662246 -10.10443953 21.81860503 -8.8125 24.0625 C-6.95990264 25.21301575 -6.95990264 25.21301575 -4.4375 24.875 C-1.6738389 24.15610832 -1.6738389 24.15610832 0 21 C0.50804038 16.26952846 0.50804038 16.26952846 -1.3125 12.0625 C-3.8759342 10.44848587 -5.50548371 10.77393541 -8.1875 12 Z " fill="#1C6098" transform="translate(153,112)"/>
<path d="M0 0 C0.33 1.98 0.66 3.96 1 6 C-3.875 5.125 -3.875 5.125 -5 4 C-5.21914063 4.65484375 -5.43828125 5.3096875 -5.6640625 5.984375 C-8.21009479 13.31198012 -11.40411827 20.1318659 -15 27 C-15.99 27 -16.98 27 -18 27 C-22.51920653 18.60718788 -24.53762436 11.53785436 -24 2 C-21.24550405 3.37724797 -21.08817219 4.84380002 -20 7.6875 C-19.67 8.53699219 -19.34 9.38648437 -19 10.26171875 C-17.94266023 13.15701241 -16.9605126 16.07129416 -16 19 C-15.60167969 17.87980469 -15.20335937 16.75960937 -14.79296875 15.60546875 C-14.25825214 14.13265281 -13.72307156 12.66000526 -13.1875 11.1875 C-12.92646484 10.44951172 -12.66542969 9.71152344 -12.39648438 8.95117188 C-12.13544922 8.23896484 -11.87441406 7.52675781 -11.60546875 6.79296875 C-11.36981201 6.1383667 -11.13415527 5.48376465 -10.89135742 4.80932617 C-8.33252205 -0.38473818 -5.54059698 -0.3136187 0 0 Z " fill="#206298" transform="translate(24,112)"/>
<path d="M0 0 C1.0209375 -0.05994141 1.0209375 -0.05994141 2.0625 -0.12109375 C4 0.4375 4 0.4375 5.73828125 2.5078125 C7.29464755 6.12166613 7.29742547 8.82932502 7.1875 12.75 C7.16042969 14.00425781 7.13335937 15.25851563 7.10546875 16.55078125 C7.07066406 17.50339844 7.03585938 18.45601562 7 19.4375 C3.36677098 21.25411451 0.16156092 21.78068845 -3.75 20.625 C-6 19.4375 -6 19.4375 -8 17.4375 C-8.46382725 13.88149109 -8.42769679 12.08759912 -6.4375 9.0625 C-3.18317497 6.89294998 -0.82869586 7.14298493 3 7.4375 C3 6.4475 3 5.4575 3 4.4375 C1.68 4.1075 0.36 3.7775 -1 3.4375 C-1.33 4.4275 -1.66 5.4175 -2 6.4375 C-3.65 6.1075 -5.3 5.7775 -7 5.4375 C-7 4.4475 -7 3.4575 -7 2.4375 C-4.08758312 0.49588875 -3.29379699 0.10605028 0 0 Z M-4 12.4375 C-3.67 14.0875 -3.34 15.7375 -3 17.4375 C-1.35 17.1075 0.3 16.7775 2 16.4375 C2.33 14.7875 2.66 13.1375 3 11.4375 C-0.89459074 11.22668149 -0.89459074 11.22668149 -4 12.4375 Z " fill="#20659E" transform="translate(67,119.5625)"/>
<path d="M0 0 C3.02848124 2.04093301 4.57824978 3.63609432 5.66796875 7.16015625 C6.32533882 11.05881637 6.29066855 13.36581406 4.625 17 C0.94041273 19.80730459 -2.40181245 20.44260629 -7 20 C-9.92143417 18.23496686 -11.47923817 17.04152365 -13 14 C-13.37712577 9.00308353 -13.09290612 6.00932275 -10 2 C-6.24952518 -0.50031654 -4.44143734 -0.53603554 0 0 Z M-8 4 C-9.6950851 6.96639893 -10.01411481 8.76004829 -9.8125 12.1875 C-9.23919196 15.30666902 -9.23919196 15.30666902 -6 17 C-3.45792029 17.33343551 -3.45792029 17.33343551 -1 17 C1.63326457 14.36673543 1.71180635 12.67446899 2 9 C1.53712479 6.17367074 1.53712479 6.17367074 0 4 C-3.28928478 2.8192311 -4.65284689 2.8842823 -8 4 Z " fill="#205E91" transform="translate(230,120)"/>
<path d="M0 0 C0.66 0.33 1.32 0.66 2 1 C2 1.99 2 2.98 2 4 C-0.97 4 -3.94 4 -7 4 C-7.37094436 6.36555264 -7.37094436 6.36555264 -7 9 C-5.08041644 10.83494604 -5.08041644 10.83494604 -2.5625 12.1875 C1.9243604 14.8487208 1.9243604 14.8487208 3 17 C3.38080215 20.50337981 3.40245078 22.36278626 1.5 25.375 C-2.21370023 27.78890515 -4.60458631 27.41861083 -9 27 C-9.99 26.34 -10.98 25.68 -12 25 C-11.505 23.515 -11.505 23.515 -11 22 C-7.7 22.33 -4.4 22.66 -1 23 C-1.30397467 19.76128811 -1.55011478 18.38610187 -4.06640625 16.2265625 C-4.89011719 15.69804687 -5.71382813 15.16953125 -6.5625 14.625 C-10.89188095 11.45564457 -10.89188095 11.45564457 -11.875 7.3125 C-11 4 -11 4 -8.875 1.5625 C-5.5810823 -0.22767266 -3.69407253 -0.4104525 0 0 Z " fill="#165F9F" transform="translate(105,113)"/>
<path d="M0 0 C2.9375 1.8125 2.9375 1.8125 5 5 C5.69081306 8.79666365 5.71791366 12.20614731 5 16 C2.34313111 19.46198067 0.78634563 19.88766491 -3.5 20.5 C-7.53761333 19.9231981 -9.14650217 18.85349783 -12 16 C-13.60086627 12.79826746 -13.49917089 9.47422941 -13 6 C-9.40129212 0.36202432 -6.63748168 -0.67499814 0 0 Z M-9 5 C-10.25885413 9.35757199 -10.02043112 11.95913777 -8 16 C-5.69 16.33 -3.38 16.66 -1 17 C1.20409407 14.61223142 1.96644557 13.26843543 2.375 10 C1.95656309 6.65250472 1.50907308 5.24951379 -1 3 C-4.7404533 2.438932 -5.77856724 2.85237816 -9 5 Z " fill="#225F93" transform="translate(179,120)"/>
<path d="M0 0 C0.99 0 1.98 0 3 0 C4.50156874 3.00313748 4.09281204 5.79067522 4.0625 9.125 C4.05347656 10.40632812 4.04445313 11.68765625 4.03515625 13.0078125 C4.02355469 13.99523437 4.01195312 14.98265625 4 16 C6.97065509 15.65772428 6.97065509 15.65772428 10 15 C11.31225559 12.37548883 11.06158521 10.42529726 11 7.5 C10.88888889 2.22222222 10.88888889 2.22222222 12 0 C12.99 0 13.98 0 15 0 C15 6.27 15 12.54 15 19 C10.67650721 19.86469856 7.35214107 20.48357123 3 20 C1.125 17.625 1.125 17.625 0 15 C-0.33 14.34 -0.66 13.68 -1 13 C-1.09555417 11.54420413 -1.12984691 10.0839204 -1.125 8.625 C-1.12886719 7.46871094 -1.12886719 7.46871094 -1.1328125 6.2890625 C-1.00389788 4.0671811 -0.61383717 2.13381492 0 0 Z " fill="#256396" transform="translate(41,120)"/>
<path d="M0 0 C0.99 0.33 1.98 0.66 3 1 C3.33 5.62 3.66 10.24 4 15 C5.65 15.33 7.3 15.66 9 16 C10.41634833 13.16730334 10.3463005 10.52533562 10.5625 7.375 C10.64628906 6.18648438 10.73007813 4.99796875 10.81640625 3.7734375 C10.87699219 2.85820313 10.93757812 1.94296875 11 1 C12.32 1 13.64 1 15 1 C15 6.94 15 12.88 15 19 C13.081875 19.226875 11.16375 19.45375 9.1875 19.6875 C8.10855469 19.81511719 7.02960938 19.94273437 5.91796875 20.07421875 C3 20 3 20 1.16015625 18.81640625 C-2.22305999 13.51945153 -1.15348261 5.89557781 0 0 Z " fill="#296295" transform="translate(122,120)"/>
<path d="M0 0 C0 0.99 0 1.98 0 3 C-0.60328125 2.98839844 -1.2065625 2.97679688 -1.828125 2.96484375 C-2.62734375 2.95582031 -3.4265625 2.94679688 -4.25 2.9375 C-5.03890625 2.92589844 -5.8278125 2.91429688 -6.640625 2.90234375 C-8.95193519 2.99801056 -10.82695317 3.20591068 -13 4 C-15.28479603 8.35199243 -15.0892623 12.20634256 -14.6796875 16.94921875 C-13.74330687 19.77450514 -12.59188486 20.58381549 -10 22 C-7.41118198 22.36034523 -7.41118198 22.36034523 -4.75 22.1875 C-3.85796875 22.16042969 -2.9659375 22.13335937 -2.046875 22.10546875 C-1.03367188 22.05326172 -1.03367188 22.05326172 0 22 C0 22.99 0 23.98 0 25 C-4.82450176 26.60816725 -9.1893338 26.80474053 -13.8125 24.75 C-17.02499952 22.18000038 -18.8136885 20.32792606 -19.3984375 16.16015625 C-19.39070312 15.13792969 -19.38296875 14.11570313 -19.375 13.0625 C-19.38273438 12.04285156 -19.39046875 11.02320312 -19.3984375 9.97265625 C-18.94554167 6.59369813 -18.01360791 4.72934531 -16 2 C-10.75647237 -1.45596139 -5.95410094 -1.98470031 0 0 Z " fill="#1B6094" transform="translate(215,114)"/>
<path d="M0 0 C1 1 1 1 1.09765625 3.28515625 C1.04882812 7.14257812 1.04882812 7.14257812 1 11 C-2.3 11 -5.6 11 -9 11 C-8.34 12.65 -7.68 14.3 -7 16 C-4.36 15.67 -1.72 15.34 1 15 C0.67 16.65 0.34 18.3 0 20 C-4.13998349 20.32470459 -6.33999001 20.4304413 -9.875 18.125 C-12.80038857 15.19961143 -12.96503325 14.42659437 -13.3125 10.1875 C-13.28232024 6.86772673 -13.0060988 6.00955479 -11.125 3.0625 C-7.50299876 -0.45297179 -4.95917622 -0.18033368 0 0 Z M-7.8125 4.3125 C-9.19183114 5.92869435 -9.19183114 5.92869435 -9 8 C-6.03 8 -3.06 8 0 8 C-0.33 6.68 -0.66 5.36 -1 4 C-4.58563992 2.80757578 -4.58563992 2.80757578 -7.8125 4.3125 Z " fill="#236297" transform="translate(269,120)"/>
<path d="M0 0 C0.33 1.65 0.66 3.3 1 5 C-1.64 4.67 -4.28 4.34 -7 4 C-6.67 5.32 -6.34 6.64 -6 8 C-5.236875 8.0825 -4.47375 8.165 -3.6875 8.25 C-1 9 -1 9 0.875 10.75 C2 13 2 13 1.875 15.625 C1 18 1 18 -2 20 C-8.33333333 20.33333333 -8.33333333 20.33333333 -11 19 C-11 18.01 -11 17.02 -11 16 C-8.36 16 -5.72 16 -3 16 C-4.25618074 12.23145777 -5.66014706 11.92041544 -9 10 C-10.39431504 7.21136993 -10.25660094 5.07921132 -10 2 C-6.3558226 -0.4294516 -4.28758728 -0.16179575 0 0 Z " fill="#23679B" transform="translate(37,120)"/>
<path d="M0 0 C0.66 0.33 1.32 0.66 2 1 C2 2.32 2 3.64 2 5 C3.65 5 5.3 5 7 5 C7 6.32 7 7.64 7 9 C5.35 9 3.7 9 2 9 C2.33 13.29 2.66 17.58 3 22 C3.99 21.67 4.98 21.34 6 21 C6.33 22.32 6.66 23.64 7 25 C4.6568787 24.74438677 2.32156597 24.40729228 0 24 C-1.44207941 21.11584117 -1.09394887 18.58278472 -1.0625 15.375 C-1.05347656 14.18648437 -1.04445313 12.99796875 -1.03515625 11.7734375 C-1.02355469 10.85820313 -1.01195313 9.94296875 -1 9 C-1.99 8.67 -2.98 8.34 -4 8 C-3.67 7.01 -3.34 6.02 -3 5 C-2.34 5 -1.68 5 -1 5 C-0.67 3.35 -0.34 1.7 0 0 Z " fill="#1E6298" transform="translate(113,115)"/>
<path d="M0 0 C5.75 0.75 5.75 0.75 8 3 C5.03 2.505 5.03 2.505 2 2 C2 5.3 2 8.6 2 12 C3.65 11.67 5.3 11.34 7 11 C6.29445932 14.66881155 4.72264494 17.70450534 3 21 C3.66 21 4.32 21 5 21 C4.67 22.32 4.34 23.64 4 25 C3.34 25 2.68 25 2 25 C2 34.57 2 44.14 2 54 C1.67 54 1.34 54 1 54 C0.18213932 47.10669396 -0.13697304 40.33683514 -0.09765625 33.3984375 C-0.0962413 32.435961 -0.09482635 31.4734845 -0.09336853 30.48184204 C-0.08782807 27.44619468 -0.07528716 24.41062459 -0.0625 21.375 C-0.05747729 19.30078232 -0.05291574 17.22656348 -0.04882812 15.15234375 C-0.03787824 10.10153331 -0.02065564 5.0507797 0 0 Z " fill="#31A2DB" transform="translate(155,13)"/>
<path d="M0 0 C0.625 1.8125 0.625 1.8125 1 4 C0.01 5.485 0.01 5.485 -1 7 C-1.763125 6.773125 -2.52625 6.54625 -3.3125 6.3125 C-5.94787302 5.74231472 -5.94787302 5.74231472 -7.8125 7 C-9.61617571 10.03776962 -9.31379024 12.54830732 -9 16 C-6.8614515 18.1385485 -5.86724686 18.42655063 -3 19 C-3 19.66 -3 20.32 -3 21 C-2.34 21.33 -1.68 21.66 -1 22 C-8.22330097 22.60194175 -8.22330097 22.60194175 -11.5 20.0625 C-13.52433426 15.92948422 -13.69646871 12.52294974 -13 8 C-10.91891892 3.45945946 -10.91891892 3.45945946 -8 2 C-5.6670134 1.95977609 -3.33293334 1.95679753 -1 2 C-0.67 1.34 -0.34 0.68 0 0 Z " fill="#185D93" transform="translate(250,118)"/>
<path d="M0 0 C1.32 0.33 2.64 0.66 4 1 C4 9.58 4 18.16 4 27 C2.68 27 1.36 27 0 27 C0 18.09 0 9.18 0 0 Z " fill="#2F648F" transform="translate(77,112)"/>
<path d="M0 0 C7.57791653 0.24845628 15.44202024 2.44202024 21 8 C21.14115161 10.67058851 21.04247107 13.32432238 21 16 C20.67 16 20.34 16 20 16 C19.979375 14.906875 19.95875 13.81375 19.9375 12.6875 C19.37549095 8.74450392 19.37549095 8.74450392 15.875 6.9375 C11.40806214 5.85678923 9.21016846 6.26640122 5 8 C4.34 8.66 3.68 9.32 3 10 C2.01 10 1.02 10 0 10 C0 6.7 0 3.4 0 0 Z " fill="#25AEF2" transform="translate(157,15)"/>
<path d="M0 0 C0.88909058 0.3088916 0.88909058 0.3088916 1.79614258 0.62402344 C0.92086914 1.01976562 0.0455957 1.41550781 -0.85620117 1.82324219 C-8.58408017 5.98024594 -14.78376981 12.80520354 -20.20385742 19.62402344 C-20.86385742 19.95402344 -21.52385742 20.28402344 -22.20385742 20.62402344 C-22.85599034 22.64865599 -22.85599034 22.64865599 -23.20385742 24.62402344 C-25.51385742 24.95402344 -27.82385742 25.28402344 -30.20385742 25.62402344 C-30.34823242 26.24277344 -30.49260742 26.86152344 -30.64135742 27.49902344 C-31.20385742 29.62402344 -31.20385742 29.62402344 -32.20385742 31.62402344 C-34.76635742 32.24902344 -34.76635742 32.24902344 -37.20385742 32.62402344 C-35.74454235 29.16007029 -33.91562478 27.24922013 -31.07885742 24.81152344 C-27.73772806 21.88864317 -24.4514018 18.93401435 -21.23120117 15.87792969 C-20.53591309 15.21833252 -19.840625 14.55873535 -19.12426758 13.87915039 C-17.74742564 12.56944424 -16.3732766 11.25689969 -15.00219727 9.94116211 C-3.82679878 -0.65284924 -3.82679878 -0.65284924 0 0 Z " fill="#2173A1" transform="translate(155.203857421875,12.3759765625)"/>
<path d="M0 0 C3.30140404 1.65070202 3.82745392 4.95522481 5.11328125 8.27734375 C6.28938477 11.88855147 6.71995587 15.2194042 7 19 C7.66 19 8.32 19 9 19 C8.34 20.32 7.68 21.64 7 23 C6.01 22.67 5.02 22.34 4 22 C0.51303127 14.92110362 -0.62153012 7.80365598 0 0 Z " fill="#226BA7" transform="translate(0,114)"/>
<path d="M0 0 C0.66 0.33 1.32 0.66 2 1 C2 1.99 2 2.98 2 4 C-0.97 4 -3.94 4 -7 4 C-7.20140476 7.62528568 -6.85776765 9.86501708 -5 13 C-8 13 -8 13 -11 11 C-11.5 7.625 -11.5 7.625 -11 4 C-7.63324949 0.13813913 -5.024288 -0.55825422 0 0 Z " fill="#155B95" transform="translate(105,113)"/>
<path d="M0 0 C0.99 0.33 1.98 0.66 3 1 C3.16798051 3.27073652 3.33434113 5.54159293 3.5 7.8125 C3.5928125 9.07707031 3.685625 10.34164062 3.78125 11.64453125 C3.91914781 13.75978517 4 15.88025592 4 18 C5.65 18.33 7.3 18.66 9 19 C9 19.33 9 19.66 9 20 C3.49882075 20.36674528 3.49882075 20.36674528 1.34765625 18.78515625 C-1.51940536 14.9873384 -1.18103116 9.38287527 -0.83203125 4.7890625 C-0.60610018 3.18462449 -0.31111013 1.59011844 0 0 Z " fill="#28618D" transform="translate(122,120)"/>
<path d="M0 0 C0.99 0.33 1.98 0.66 3 1 C3 6.94 3 12.88 3 19 C1.68 19 0.36 19 -1 19 C-1.02683987 16.02077407 -1.04676037 13.04178705 -1.0625 10.0625 C-1.07087891 9.21236328 -1.07925781 8.36222656 -1.08789062 7.48632812 C-1.09111328 6.67744141 -1.09433594 5.86855469 -1.09765625 5.03515625 C-1.10289307 4.2862915 -1.10812988 3.53742676 -1.11352539 2.76586914 C-1 1 -1 1 0 0 Z " fill="#25699D" transform="translate(21,120)"/>
<path d="M0 0 C0.70053913 5.16647607 0.70053913 5.16647607 0 8 C-2.35111331 10.3081706 -4.90764647 11.86365322 -8 13 C-8.66 12.67 -9.32 12.34 -10 12 C-9.25 9.625 -9.25 9.625 -8 7 C-6.67479497 6.31731862 -5.34187818 5.6492959 -4 5 C-3.34786708 2.97536745 -3.34786708 2.97536745 -3 1 C-1 0 -1 0 0 0 Z " fill="#299EE1" transform="translate(178,79)"/>
<path d="M0 0 C0.66 0 1.32 0 2 0 C2.77508897 9.99003559 2.77508897 9.99003559 -0.0625 13.6875 C-3.58257315 15.26029864 -6.18444504 15.29925921 -10 15 C-10.33 14.01 -10.66 13.02 -11 12 C-9.3603125 11.814375 -9.3603125 11.814375 -7.6875 11.625 C-3.92618198 11.24535199 -3.92618198 11.24535199 -1 9 C-0.42006301 6.80545319 -0.42006301 6.80545319 -0.3125 4.375 C-0.24675781 3.55773437 -0.18101562 2.74046875 -0.11328125 1.8984375 C-0.07589844 1.27195312 -0.03851563 0.64546875 0 0 Z " fill="#18629F" transform="translate(182,125)"/>
<path d="M0 0 C0.33 0 0.66 0 1 0 C1 8.25 1 16.5 1 25 C1.99 24.67 2.98 24.34 4 24 C4 23.34 4 22.68 4 22 C6.64 22 9.28 22 12 22 C8.63263969 24.82858266 5.12548042 26.4998253 1 28 C0.01 27.67 -0.98 27.34 -2 27 C-1.67 26.67 -1.34 26.34 -1 26 C-0.92496404 24.32707319 -0.91681676 22.65104353 -0.9375 20.9765625 C-0.94523438 19.955625 -0.95296875 18.9346875 -0.9609375 17.8828125 C-0.98688551 15.71874887 -1.01292649 13.55468636 -1.0390625 11.390625 C-1.04679688 10.36710937 -1.05453125 9.34359375 -1.0625 8.2890625 C-1.07410156 7.34756348 -1.08570313 6.40606445 -1.09765625 5.43603516 C-1 3 -1 3 0 0 Z " fill="#2497DA" transform="translate(156,70)"/>
<path d="M0 0 C0.33 0 0.66 0 1 0 C1.0825 0.9075 1.165 1.815 1.25 2.75 C2.12584625 6.54533373 2.71769871 7.89596071 6 10 C8.8206699 10.02696625 11.20565284 9.55886943 14 9 C13.67 10.65 13.34 12.3 13 14 C8.86001651 14.32470459 6.66000999 14.4304413 3.125 12.125 C0.05285412 9.05285412 0.05285412 9.05285412 -0.09765625 6.0546875 C-0.06510417 4.03645833 -0.03255208 2.01822917 0 0 Z " fill="#165C8E" transform="translate(256,126)"/>
<path d="M0 0 C0.66 0 1.32 0 2 0 C2 6.27 2 12.54 2 19 C1.01 19 0.02 19 -1 19 C-1.02683987 16.02077407 -1.04676037 13.04178705 -1.0625 10.0625 C-1.07087891 9.21236328 -1.07925781 8.36222656 -1.08789062 7.48632812 C-1.09111328 6.67744141 -1.09433594 5.86855469 -1.09765625 5.03515625 C-1.10289307 4.2862915 -1.10812988 3.53742676 -1.11352539 2.76586914 C-1 1 -1 1 0 0 Z " fill="#276091" transform="translate(161,120)"/>
<path d="M0 0 C0.66 0.33 1.32 0.66 2 1 C2 2.32 2 3.64 2 5 C1.34 5.66 0.68 6.32 0 7 C0.99 7.66 1.98 8.32 3 9 C2.67 10.32 2.34 11.64 2 13 C0 13 0 13 -1.9375 11.1875 C-2.9584375 10.1046875 -2.9584375 10.1046875 -4 9 C-4.86625 8.13375 -4.86625 8.13375 -5.75 7.25 C-6.1625 6.8375 -6.575 6.425 -7 6 C-6.67 5.34 -6.34 4.68 -6 4 C-5.34 4 -4.68 4 -4 4 C-3.67 3.67 -3.34 3.34 -3 3 C-2 2 -1 1 0 0 Z " fill="#038AD5" transform="translate(100,36)"/>
<path d="M0 0 C3.93673644 1.31224548 6.22719294 2.91910327 9 6 C8.29875 5.67 7.5975 5.34 6.875 5 C3.73996884 3.90955438 1.29436818 3.84677357 -2 4 C-3.24546405 6.49092811 -2.7767578 7.41080733 -2 10 C-2.66 10 -3.32 10 -4 10 C-4 9.34 -4 8.68 -4 8 C-6.05270463 9.84188612 -6.05270463 9.84188612 -7 12 C-7.33 10.35 -7.66 8.7 -8 7 C-5.36 4.69 -2.72 2.38 0 0 Z " fill="#2285BE" transform="translate(100,32)"/>
<path d="M0 0 C2.94956528 1.36944102 5.52468811 2.87830409 8 5 C8 5.66 8 6.32 8 7 C8.928125 7.20625 9.85625 7.4125 10.8125 7.625 C14 9 14 9 15.875 12.125 C16.24625 13.07375 16.6175 14.0225 17 15 C14.525 14.01 14.525 14.01 12 13 C12 12.34 12 11.68 12 11 C11.42765625 10.75378906 10.8553125 10.50757812 10.265625 10.25390625 C7.63481257 8.79788765 5.85191095 7.08222766 3.75 4.9375 C3.04359375 4.22464844 2.3371875 3.51179688 1.609375 2.77734375 C0 1 0 1 0 0 Z " fill="#1D77B1" transform="translate(137,83)"/>
<path d="M0 0 C0.66 0.33 1.32 0.66 2 1 C1.01 2.485 1.01 2.485 0 4 C2.64 3.67 5.28 3.34 8 3 C8 3.66 8 4.32 8 5 C6.865625 5.28875 5.73125 5.5775 4.5625 5.875 C3.386875 6.24625 2.21125 6.6175 1 7 C0.67 7.66 0.34 8.32 0 9 C-0.99 8.67 -1.98 8.34 -3 8 C-3.1875 5.125 -3.1875 5.125 -3 2 C-2.01 1.34 -1.02 0.68 0 0 Z " fill="#156AA7" transform="translate(260,124)"/>
<path d="M0 0 C0.66 0.99 1.32 1.98 2 3 C-3.75 5 -3.75 5 -6 5 C-6.144375 5.61875 -6.28875 6.2375 -6.4375 6.875 C-7 9 -7 9 -8 11 C-10.5625 11.625 -10.5625 11.625 -13 12 C-11.64891639 8.90989789 -10.20982067 7.03089847 -7.625 4.875 C-7.03976563 4.37742187 -6.45453125 3.87984375 -5.8515625 3.3671875 C-3.97799995 1.98375524 -2.11017462 0.97607196 0 0 Z " fill="#146FA6" transform="translate(131,33)"/>
<path d="M0 0 C2.475 0.495 2.475 0.495 5 1 C5 4.3 5 7.6 5 11 C4.01 10.67 3.02 10.34 2 10 C1.34 6.7 0.68 3.4 0 0 Z " fill="#2760A3" transform="translate(249,112)"/>
<path d="M0 0 C3.72209925 0.58075308 6.49269162 1.61994281 9.75 3.5 C10.52859375 3.9434375 11.3071875 4.386875 12.109375 4.84375 C14 6 14 6 15 7 C15.14115161 9.67058851 15.04247107 12.32432238 15 15 C14.67 15 14.34 15 14 15 C14.020625 13.9275 14.04125 12.855 14.0625 11.75 C13.43324334 7.97359764 13.43324334 7.97359764 11 6.6796875 C8.69173308 5.68091816 6.37953415 4.81209789 4 4 C3.34 3.67 2.68 3.34 2 3 C2 2.34 2 1.68 2 1 C1.34 0.67 0.68 0.34 0 0 Z " fill="#3EAADA" transform="translate(163,16)"/>
<path d="M0 0 C3 1 3 1 5 4 C5.125 7.1875 5.125 7.1875 5 10 C3.68 10.33 2.36 10.66 1 11 C0.87625 9.88625 0.7525 8.7725 0.625 7.625 C0.3534187 3.96896323 0.3534187 3.96896323 -2 2 C-1.34 1.34 -0.68 0.68 0 0 Z " fill="#195A87" transform="translate(230,121)"/>
<path d="M0 0 C0.33 0 0.66 0 1 0 C3.32 7.32631579 3.32 7.32631579 1.8125 10.5 C0 12 0 12 -3 12 C-2.67 10.02 -2.34 8.04 -2 6 C-1.34 6 -0.68 6 0 6 C0 4.02 0 2.04 0 0 Z " fill="#1A62A1" transform="translate(233,126)"/>
<path d="M0 0 C0 0.99 0 1.98 0 3 C-0.66 3 -1.32 3 -2 3 C-2.33 3.99 -2.66 4.98 -3 6 C-4.65 5.67 -6.3 5.34 -8 5 C-8 4.01 -8 3.02 -8 2 C-4.77208445 -0.1519437 -3.71599191 -0.20086443 0 0 Z " fill="#2C5D8E" transform="translate(68,120)"/>
<path d="M0 0 C5.75 -0.125 5.75 -0.125 8 1 C8 1.99 8 2.98 8 4 C5.03 4 2.06 4 -1 4 C-0.67 2.68 -0.34 1.36 0 0 Z " fill="#195482" transform="translate(99,113)"/>
<path d="M0 0 C3.875 1.75 3.875 1.75 5 4 C5.06950541 5.54023996 5.08452357 7.08334988 5.0625 8.625 C5.05347656 9.44226563 5.04445312 10.25953125 5.03515625 11.1015625 C5.02355469 11.72804688 5.01195312 12.35453125 5 13 C4.70351562 12.36835937 4.40703125 11.73671875 4.1015625 11.0859375 C3.13445711 8.94023537 3.13445711 8.94023537 1.375 7.625 C-0.6802674 5.19604762 -0.20441794 3.06626911 0 0 Z " fill="#0A7CC0" transform="translate(151,70)"/>
<path d="M0 0 C1.8125 0.1875 1.8125 0.1875 4 1 C6.14197494 3.90696599 7 5.35521088 7 9 C4.13998967 7.71792641 1.92960588 6.50848764 0 4 C0 2.68 0 1.36 0 0 Z " fill="#127CBB" transform="translate(120,65)"/>
<path d="M0 0 C2.9512645 1.47563225 3.06923915 3.50079352 4.125 6.5625 C4.47820313 7.57441406 4.83140625 8.58632812 5.1953125 9.62890625 C5.46085938 10.41136719 5.72640625 11.19382812 6 12 C4.078125 11.63671875 4.078125 11.63671875 2 11 C-0.09242143 7.3382625 -0.19324053 4.15467129 0 0 Z " fill="#19649C" transform="translate(0,114)"/>
<path d="M0 0 C1.32 0.33 2.64 0.66 4 1 C2.68 3.64 1.36 6.28 0 9 C-0.66 8.34 -1.32 7.68 -2 7 C-1.6730244 4.38419521 -1.17960932 2.35921863 0 0 Z " fill="#246697" transform="translate(199,116)"/>
<path d="M0 0 C0.66 0.33 1.32 0.66 2 1 C2 2.32 2 3.64 2 5 C3.65 5 5.3 5 7 5 C6.67 6.32 6.34 7.64 6 9 C3.0625 7.8125 3.0625 7.8125 0 6 C-0.9375 3.375 -0.9375 3.375 -1 1 C-0.67 0.67 -0.34 0.34 0 0 Z " fill="#1A598C" transform="translate(113,115)"/>
<path d="M0 0 C1.875 0.25 1.875 0.25 4 1 C5.25 3.0625 5.25 3.0625 6 5 C5.67 5.33 5.34 5.66 5 6 C6.65 6.33 8.3 6.66 10 7 C10 7.33 10 7.66 10 8 C4.55414013 8.36305732 4.55414013 8.36305732 2.1875 6.8125 C0.72461964 4.57968261 0.35494045 2.62655933 0 0 Z " fill="#1E538A" transform="translate(121,132)"/>
<path d="M0 0 C1.32 0.33 2.64 0.66 4 1 C3.8864371 2.64666203 3.75882619 4.29236082 3.625 5.9375 C3.52058594 7.31228516 3.52058594 7.31228516 3.4140625 8.71484375 C3.27742187 9.46894531 3.14078125 10.22304687 3 11 C2.01 11.495 2.01 11.495 1 12 C0.67 8.04 0.34 4.08 0 0 Z " fill="#1763A9" transform="translate(250,122)"/>
<path d="M0 0 C0.625 1.8125 0.625 1.8125 1 4 C0.01 5.485 0.01 5.485 -1 7 C-1.66 6.34 -2.32 5.68 -3 5 C-2.67 4.34 -2.34 3.68 -2 3 C-6.455 4.485 -6.455 4.485 -11 6 C-10.67 5.01 -10.34 4.02 -10 3 C-7.04335481 1.5216774 -4.25770263 1.93967217 -1 2 C-0.67 1.34 -0.34 0.68 0 0 Z " fill="#1A5587" transform="translate(250,118)"/>
<path d="M0 0 C3.16130459 4.21507278 3.3367697 5.06071112 3 10 C2.34 10 1.68 10 1 10 C0.67 10.66 0.34 11.32 0 12 C0 8.04 0 4.08 0 0 Z " fill="#1E5989" transform="translate(196,121)"/>
<path d="M0 0 C3.91841827 1.30613942 6.32640809 2.83129848 9 6 C9 6.66 9 7.32 9 8 C9.99 8 10.98 8 12 8 C12 8.66 12 9.32 12 10 C8.15114044 9.44520943 6.40739482 7.75581685 3.75 5 C3.04359375 4.278125 2.3371875 3.55625 1.609375 2.8125 C0 1 0 1 0 0 Z " fill="#1B81B3" transform="translate(94,44)"/>
<path d="M0 0 C2 2 2 2 2.1953125 5.2578125 C2.16050781 7.17207031 2.16050781 7.17207031 2.125 9.125 C2.10695313 10.40632812 2.08890625 11.68765625 2.0703125 13.0078125 C2.04710938 13.99523437 2.02390625 14.98265625 2 16 C1.34 16.33 0.68 16.66 0 17 C-0.99 16.34 -1.98 15.68 -3 15 C-2.01 14.67 -1.02 14.34 0 14 C0.33 10.37 0.66 6.74 1 3 C0.34 3 -0.32 3 -1 3 C-0.67 2.01 -0.34 1.02 0 0 Z " fill="#1E5B88" transform="translate(72,123)"/>
<path d="M0 0 C3.3125 0.5625 3.3125 0.5625 7 2 C8.5368579 4.29468783 9.1584126 6.32672237 10 9 C6.78956118 7.61811547 4.95063635 6.07578097 2.75 3.375 C2.22921875 2.74335937 1.7084375 2.11171875 1.171875 1.4609375 C0.78515625 0.97882813 0.3984375 0.49671875 0 0 Z " fill="#1B7AB3" transform="translate(127,74)"/>
<path d="M0 0 C1.60433809 0.47859241 3.20846416 0.95789558 4.8125 1.4375 C6.15248047 1.83775391 6.15248047 1.83775391 7.51953125 2.24609375 C9.35473055 2.80387873 11.18033726 3.39344575 13 4 C10 6 10 6 7.625 5.9375 C4.18515634 4.70898441 2.4122135 2.68789504 0 0 Z " fill="#22649B" transform="translate(93,72)"/>
<path d="M0 0 C2.875 -0.125 2.875 -0.125 6 0 C6.66 0.66 7.32 1.32 8 2 C7.01 3.485 7.01 3.485 6 5 C4.125 4.75 4.125 4.75 2 4 C0.75 1.9375 0.75 1.9375 0 0 Z " fill="#0169AD" transform="translate(119,44)"/>
<path d="M0 0 C1.98 0.66 3.96 1.32 6 2 C5.01 2.66 4.02 3.32 3 4 C4.98 4 6.96 4 9 4 C9 4.33 9 4.66 9 5 C2.375 5.25 2.375 5.25 -1 3 C-0.67 2.01 -0.34 1.02 0 0 Z " fill="#235896" transform="translate(94,135)"/>
<path d="M0 0 C0.99 0 1.98 0 3 0 C4.125 3.75 4.125 3.75 3 6 C2.34 6 1.68 6 1 6 C1 6.66 1 7.32 1 8 C0.34 7.67 -0.32 7.34 -1 7 C-0.67 4.69 -0.34 2.38 0 0 Z " fill="#215BAA" transform="translate(41,120)"/>
<path d="M0 0 C0.5625 1.9375 0.5625 1.9375 1 4 C0 5 0 5 -3.5625 5.0625 C-4.696875 5.041875 -5.83125 5.02125 -7 5 C-7 4.34 -7 3.68 -7 3 C-4.69 2.01 -2.38 1.02 0 0 Z " fill="#1E5F99" transform="translate(269,135)"/>
<path d="M0 0 C0.99 0 1.98 0 3 0 C3.33 1.32 3.66 2.64 4 4 C1.36 4.66 -1.28 5.32 -4 6 C-2.84826645 3.53199953 -1.95216435 1.95216435 0 0 Z " fill="#106BA8" transform="translate(105,55)"/>
<path d="M0 0 C2.81296623 1.40648311 4.5330209 2.98807877 6.625 5.3125 C5.573125 4.8484375 5.573125 4.8484375 4.5 4.375 C1.53563343 3.27947322 -1.25198108 2.74827008 -4.375 2.3125 C-4.375 1.6525 -4.375 0.9925 -4.375 0.3125 C-2.375 -0.6875 -2.375 -0.6875 0 0 Z " fill="#1E7AB1" transform="translate(102.375,32.6875)"/>
<path d="M0 0 C1.60875 0.2784375 1.60875 0.2784375 3.25 0.5625 C6.40391546 0.9304568 8.09818492 1.04465343 11 0 C11 0.66 11 1.32 11 2 C7.95699684 3.52150158 5.345915 3.23899393 2 3 C1.34 2.01 0.68 1.02 0 0 Z " fill="#1668A7" transform="translate(43,136)"/>
<path d="M0 0 C0.33 0.99 0.66 1.98 1 3 C1.99 3 2.98 3 4 3 C3.67 3.66 3.34 4.32 3 5 C2.34 4.67 1.68 4.34 1 4 C0.67 4.99 0.34 5.98 0 7 C0 6.01 0 5.02 0 4 C-0.66 4 -1.32 4 -2 4 C-2 5.65 -2 7.3 -2 9 C-2.33 9 -2.66 9 -3 9 C-3.36923077 3.46153846 -3.36923077 3.46153846 -1.5 1.125 C-1.005 0.75375 -0.51 0.3825 0 0 Z " fill="#285F90" transform="translate(62,128)"/>
<path d="M0 0 C-0.33 0.66 -0.66 1.32 -1 2 C-3.32156597 2.40729228 -5.6568787 2.74438677 -8 3 C-8 3.66 -8 4.32 -8 5 C-8.66 5 -9.32 5 -10 5 C-7.62417533 -0.26075462 -5.61350876 -0.1220328 0 0 Z " fill="#1E62A1" transform="translate(230,121)"/>
<path d="M0 0 C3.53372712 1.96318174 6.24479785 4.04070881 9 7 C7.02 7 5.04 7 3 7 C2.67 5.35 2.34 3.7 2 2 C1.34 2 0.68 2 0 2 C0 1.34 0 0.68 0 0 Z " fill="#157AB3" transform="translate(142,63)"/>
<path d="M0 0 C0 0.99 0 1.98 0 3 C-1.65 3.33 -3.3 3.66 -5 4 C-5 3.34 -5 2.68 -5 2 C-6.32 1.67 -7.64 1.34 -9 1 C-5.846632 0.29925156 -3.27275026 0 0 0 Z " fill="#275D8D" transform="translate(215,136)"/>
<path d="M0 0 C0.33 0 0.66 0 1 0 C1 2.97 1 5.94 1 9 C0.34 9 -0.32 9 -1 9 C-1.625 6.1875 -1.625 6.1875 -2 3 C-1.34 2.01 -0.68 1.02 0 0 Z " fill="#126AB0" transform="translate(22,129)"/>
<path d="M0 0 C0.36923077 4.55384615 0.36923077 4.55384615 -1.5 6.8125 C-1.995 7.204375 -2.49 7.59625 -3 8 C-4 5 -4 5 -4 1 C-2 0 -2 0 0 0 Z " fill="#1D5A8B" transform="translate(15,123)"/>
<path d="M0 0 C0.66 0 1.32 0 2 0 C3.0625 1.8125 3.0625 1.8125 4 4 C3.67 4.99 3.34 5.98 3 7 C2.01 6.67 1.02 6.34 0 6 C0 4.02 0 2.04 0 0 Z " fill="#1A6AA7" transform="translate(60,132)"/>
<path d="M0 0 C0.99 0 1.98 0 3 0 C3 3 3 6 3 9 C2.01 8.67 1.02 8.34 0 8 C0.66 5.69 1.32 3.38 2 1 C1.34 0.67 0.68 0.34 0 0 Z " fill="#1E6BAB" transform="translate(69,129)"/>
<path d="M0 0 C2.375 0.6875 2.375 0.6875 5 2 C6.3125 4.625 6.3125 4.625 7 7 C4.625 6.3125 4.625 6.3125 2 5 C0.6875 2.375 0.6875 2.375 0 0 Z " fill="#1574BC" transform="translate(147,91)"/>
<path d="M0 0 C1.65 0 3.3 0 5 0 C2.51047079 2.66735273 0.36591866 4.55746343 -3 6 C-3 5.01 -3 4.02 -3 3 C-2.01 3 -1.02 3 0 3 C0 2.01 0 1.02 0 0 Z " fill="#1B6C9F" transform="translate(140,45)"/>
<path d="M0 0 C0 0.99 0 1.98 0 3 C-2.97 3 -5.94 3 -9 3 C-5.87496336 0.91664224 -3.72863529 0 0 0 Z " fill="#2B6BA2" transform="translate(270,128)"/>
<path d="M0 0 C0 1.65 0 3.3 0 5 C-0.99 4.67 -1.98 4.34 -3 4 C-3 5.98 -3 7.96 -3 10 C-3.33 10 -3.66 10 -4 10 C-4.36814024 3.49618902 -4.36814024 3.49618902 -2.5625 1.0625 C-1 0 -1 0 0 0 Z " fill="#1F5D8B" transform="translate(98,114)"/>
<path d="M0 0 C2.475 0.495 2.475 0.495 5 1 C4 4 4 4 1 6 C0.67 4.02 0.34 2.04 0 0 Z " fill="#2E5E8D" transform="translate(249,112)"/>
<path d="M0 0 C-0.33 0.99 -0.66 1.98 -1 3 C-2.65 3 -4.3 3 -6 3 C-6.33 2.01 -6.66 1.02 -7 0 C-2.25 -1.125 -2.25 -1.125 0 0 Z " fill="#1E9CEB" transform="translate(169,89)"/>
<path d="M0 0 C1.32 0 2.64 0 4 0 C3.67 1.32 3.34 2.64 3 4 C2.01 3.67 1.02 3.34 0 3 C0 2.01 0 1.02 0 0 Z " fill="#20618B" transform="translate(160,114)"/>
<path d="" fill="#000000" transform="translate(0,0)"/>
<path d="" fill="#000000" transform="translate(0,0)"/>
<path d="" fill="#406080" transform="translate(0,0)"/>
</svg>
